<svg width="229" height="163" viewBox="0 0 229 163" fill="none" xmlns="http://www.w3.org/2000/svg">
<path d="M0 0H214C222.284 0 229 6.71573 229 15V148C229 156.284 222.284 163 214 163H0V0Z" fill="#1261A9"/>
<path d="M100.264 103.786H128.736V109.357H100.264V103.786ZM105.959 114.929H123.042V120.5H105.959V114.929ZM114.5 42.5C106.949 42.5 99.7071 45.4349 94.3675 50.6592C89.028 55.8834 86.0283 62.969 86.0283 70.3571C85.8357 74.4057 86.6284 78.4412 88.3411 82.1315C90.0537 85.8219 92.6374 89.0616 95.8796 91.5843C98.7268 94.175 100.264 95.6514 100.264 98.2143H105.959C105.959 93.0886 102.798 90.2193 99.7233 87.4614C97.0622 85.4676 94.9414 82.8658 93.5466 79.8838C92.1517 76.9019 91.5255 73.6308 91.7227 70.3571C91.7227 64.4466 94.1225 58.7781 98.3941 54.5988C102.666 50.4194 108.459 48.0714 114.5 48.0714C120.541 48.0714 126.335 50.4194 130.607 54.5988C134.878 58.7781 137.278 64.4466 137.278 70.3571C137.472 73.6333 136.841 76.9059 135.441 79.888C134.041 82.8701 131.915 85.4706 129.249 87.4614C126.202 90.2471 123.042 93.0329 123.042 98.2143H128.736C128.736 95.6514 130.245 94.175 133.121 91.5564C136.361 89.0381 138.943 85.8031 140.656 82.1176C142.369 78.4321 143.163 74.4014 142.972 70.3571C142.972 66.6989 142.236 63.0765 140.805 59.6967C139.374 56.3169 137.277 53.2459 134.633 50.6592C131.989 48.0724 128.85 46.0205 125.396 44.6205C121.942 43.2205 118.239 42.5 114.5 42.5V42.5Z" fill="white"/>
</svg>
