<svg width="229" height="163" viewBox="0 0 229 163" fill="none" xmlns="http://www.w3.org/2000/svg">
<path d="M0 0H214C222.284 0 229 6.71573 229 15V148C229 156.284 222.284 163 214 163H0V0Z" fill="#1261A9"/>
<path fill-rule="evenodd" clip-rule="evenodd" d="M84.75 53C84.6174 53 84.4902 53.0527 84.3964 53.1464C84.3027 53.2402 84.25 53.3674 84.25 53.5V109.5C84.25 109.633 84.3027 109.76 84.3964 109.854C84.4902 109.947 84.6174 110 84.75 110H144.25C144.383 110 144.51 109.947 144.604 109.854C144.697 109.76 144.75 109.633 144.75 109.5V64C144.75 63.8674 144.697 63.7402 144.604 63.6464C144.51 63.5527 144.383 63.5 144.25 63.5H114.5C113.61 63.5 112.765 63.1045 112.195 62.4206L104.345 53H84.75ZM80.1538 48.9038C81.3728 47.6848 83.0261 47 84.75 47H105.75C106.64 47 107.485 47.3955 108.055 48.0794L115.905 57.5H144.25C145.974 57.5 147.627 58.1848 148.846 59.4038C150.065 60.6228 150.75 62.2761 150.75 64V109.5C150.75 111.224 150.065 112.877 148.846 114.096C147.627 115.315 145.974 116 144.25 116H84.75C83.0261 116 81.3728 115.315 80.1538 114.096C78.9348 112.877 78.25 111.224 78.25 109.5V53.5C78.25 51.7761 78.9348 50.1228 80.1538 48.9038Z" fill="white"/>
<path fill-rule="evenodd" clip-rule="evenodd" d="M109.975 75.5251C111.342 76.892 111.342 79.108 109.975 80.4749L103.7 86.75L109.975 93.0251C111.342 94.392 111.342 96.608 109.975 97.9749C108.608 99.3417 106.392 99.3417 105.025 97.9749L96.2751 89.2249C94.9083 87.858 94.9083 85.642 96.2751 84.2751L105.025 75.5251C106.392 74.1583 108.608 74.1583 109.975 75.5251Z" fill="white"/>
<path fill-rule="evenodd" clip-rule="evenodd" d="M118.275 97.9749C116.908 96.608 116.908 94.392 118.275 93.0251L124.55 86.75L118.275 80.4749C116.908 79.108 116.908 76.892 118.275 75.5251C119.642 74.1583 121.858 74.1583 123.225 75.5251L131.975 84.2751C133.342 85.642 133.342 87.858 131.975 89.2249L123.225 97.9749C121.858 99.3417 119.642 99.3417 118.275 97.9749Z" fill="white"/>
</svg>
