<svg width="1097" height="163" viewBox="0 0 1097 163" fill="none" xmlns="http://www.w3.org/2000/svg">
<rect width="1097" height="163" fill="#F0F0F0"/>
<path d="M64.9062 53.9219L57.3945 51.2383V48.0859L67.6016 52.375V54.6367L64.9062 53.9219ZM57.3945 56.1719L64.918 53.4297L67.6016 52.7852V55.0352L57.3945 59.3242V56.1719ZM79.6367 43.9375V61H76.1328V43.9375H79.6367ZM86.0234 51.0273V61H82.6484V48.3203H85.8125L86.0234 51.0273ZM85.5312 54.2148H84.6172C84.6172 53.2773 84.7383 52.4336 84.9805 51.6836C85.2227 50.9258 85.5625 50.2812 86 49.75C86.4375 49.2109 86.957 48.8008 87.5586 48.5195C88.168 48.2305 88.8477 48.0859 89.5977 48.0859C90.1914 48.0859 90.7344 48.1719 91.2266 48.3438C91.7188 48.5156 92.1406 48.7891 92.4922 49.1641C92.8516 49.5391 93.125 50.0352 93.3125 50.6523C93.5078 51.2695 93.6055 52.0234 93.6055 52.9141V61H90.207V52.9023C90.207 52.3398 90.1289 51.9023 89.9727 51.5898C89.8164 51.2773 89.5859 51.0586 89.2812 50.9336C88.9844 50.8008 88.6172 50.7344 88.1797 50.7344C87.7266 50.7344 87.332 50.8242 86.9961 51.0039C86.668 51.1836 86.3945 51.4336 86.1758 51.7539C85.9648 52.0664 85.8047 52.4336 85.6953 52.8555C85.5859 53.2773 85.5312 53.7305 85.5312 54.2148ZM99.4766 51.0273V61H96.1016V48.3203H99.2656L99.4766 51.0273ZM98.9844 54.2148H98.0703C98.0703 53.2773 98.1914 52.4336 98.4336 51.6836C98.6758 50.9258 99.0156 50.2812 99.4531 49.75C99.8906 49.2109 100.41 48.8008 101.012 48.5195C101.621 48.2305 102.301 48.0859 103.051 48.0859C103.645 48.0859 104.188 48.1719 104.68 48.3438C105.172 48.5156 105.594 48.7891 105.945 49.1641C106.305 49.5391 106.578 50.0352 106.766 50.6523C106.961 51.2695 107.059 52.0234 107.059 52.9141V61H103.66V52.9023C103.66 52.3398 103.582 51.9023 103.426 51.5898C103.27 51.2773 103.039 51.0586 102.734 50.9336C102.438 50.8008 102.07 50.7344 101.633 50.7344C101.18 50.7344 100.785 50.8242 100.449 51.0039C100.121 51.1836 99.8477 51.4336 99.6289 51.7539C99.418 52.0664 99.2578 52.4336 99.1484 52.8555C99.0391 53.2773 98.9844 53.7305 98.9844 54.2148ZM109.086 54.7891V54.543C109.086 53.6133 109.219 52.7578 109.484 51.9766C109.75 51.1875 110.137 50.5039 110.645 49.9258C111.152 49.3477 111.777 48.8984 112.52 48.5781C113.262 48.25 114.113 48.0859 115.074 48.0859C116.035 48.0859 116.891 48.25 117.641 48.5781C118.391 48.8984 119.02 49.3477 119.527 49.9258C120.043 50.5039 120.434 51.1875 120.699 51.9766C120.965 52.7578 121.098 53.6133 121.098 54.543V54.7891C121.098 55.7109 120.965 56.5664 120.699 57.3555C120.434 58.1367 120.043 58.8203 119.527 59.4062C119.02 59.9844 118.395 60.4336 117.652 60.7539C116.91 61.0742 116.059 61.2344 115.098 61.2344C114.137 61.2344 113.281 61.0742 112.531 60.7539C111.789 60.4336 111.16 59.9844 110.645 59.4062C110.137 58.8203 109.75 58.1367 109.484 57.3555C109.219 56.5664 109.086 55.7109 109.086 54.7891ZM112.461 54.543V54.7891C112.461 55.3203 112.508 55.8164 112.602 56.2773C112.695 56.7383 112.844 57.1445 113.047 57.4961C113.258 57.8398 113.531 58.1094 113.867 58.3047C114.203 58.5 114.613 58.5977 115.098 58.5977C115.566 58.5977 115.969 58.5 116.305 58.3047C116.641 58.1094 116.91 57.8398 117.113 57.4961C117.316 57.1445 117.465 56.7383 117.559 56.2773C117.66 55.8164 117.711 55.3203 117.711 54.7891V54.543C117.711 54.0273 117.66 53.543 117.559 53.0898C117.465 52.6289 117.312 52.2227 117.102 51.8711C116.898 51.5117 116.629 51.2305 116.293 51.0273C115.957 50.8242 115.551 50.7227 115.074 50.7227C114.598 50.7227 114.191 50.8242 113.855 51.0273C113.527 51.2305 113.258 51.5117 113.047 51.8711C112.844 52.2227 112.695 52.6289 112.602 53.0898C112.508 53.543 112.461 54.0273 112.461 54.543ZM127.297 58.5391L130.109 48.3203H133.637L129.359 61H127.227L127.297 58.5391ZM125.363 48.3203L128.188 58.5508L128.246 61H126.102L121.824 48.3203H125.363ZM141.805 58.1406V52.4922C141.805 52.0859 141.738 51.7383 141.605 51.4492C141.473 51.1523 141.266 50.9219 140.984 50.7578C140.711 50.5938 140.355 50.5117 139.918 50.5117C139.543 50.5117 139.219 50.5781 138.945 50.7109C138.672 50.8359 138.461 51.0195 138.312 51.2617C138.164 51.4961 138.09 51.7734 138.09 52.0938H134.715C134.715 51.5547 134.84 51.043 135.09 50.5586C135.34 50.0742 135.703 49.6484 136.18 49.2812C136.656 48.9062 137.223 48.6133 137.879 48.4023C138.543 48.1914 139.285 48.0859 140.105 48.0859C141.09 48.0859 141.965 48.25 142.73 48.5781C143.496 48.9062 144.098 49.3984 144.535 50.0547C144.98 50.7109 145.203 51.5312 145.203 52.5156V57.9414C145.203 58.6367 145.246 59.207 145.332 59.6523C145.418 60.0898 145.543 60.4727 145.707 60.8008V61H142.297C142.133 60.6562 142.008 60.2266 141.922 59.7109C141.844 59.1875 141.805 58.6641 141.805 58.1406ZM142.25 53.2773L142.273 55.1875H140.387C139.941 55.1875 139.555 55.2383 139.227 55.3398C138.898 55.4414 138.629 55.5859 138.418 55.7734C138.207 55.9531 138.051 56.1641 137.949 56.4062C137.855 56.6484 137.809 56.9141 137.809 57.2031C137.809 57.4922 137.875 57.7539 138.008 57.9883C138.141 58.2148 138.332 58.3945 138.582 58.5273C138.832 58.6523 139.125 58.7148 139.461 58.7148C139.969 58.7148 140.41 58.6133 140.785 58.4102C141.16 58.207 141.449 57.957 141.652 57.6602C141.863 57.3633 141.973 57.082 141.98 56.8164L142.871 58.2461C142.746 58.5664 142.574 58.8984 142.355 59.2422C142.145 59.5859 141.875 59.9102 141.547 60.2148C141.219 60.5117 140.824 60.7578 140.363 60.9531C139.902 61.1406 139.355 61.2344 138.723 61.2344C137.918 61.2344 137.188 61.0742 136.531 60.7539C135.883 60.4258 135.367 59.9766 134.984 59.4062C134.609 58.8281 134.422 58.1719 134.422 57.4375C134.422 56.7734 134.547 56.1836 134.797 55.668C135.047 55.1523 135.414 54.7188 135.898 54.3672C136.391 54.0078 137.004 53.7383 137.738 53.5586C138.473 53.3711 139.324 53.2773 140.293 53.2773H142.25ZM154.016 48.3203V50.7109H146.633V48.3203H154.016ZM148.461 45.1914H151.836V57.1797C151.836 57.5469 151.883 57.8281 151.977 58.0234C152.078 58.2188 152.227 58.3555 152.422 58.4336C152.617 58.5039 152.863 58.5391 153.16 58.5391C153.371 58.5391 153.559 58.5312 153.723 58.5156C153.895 58.4922 154.039 58.4688 154.156 58.4453L154.168 60.9297C153.879 61.0234 153.566 61.0977 153.23 61.1523C152.895 61.207 152.523 61.2344 152.117 61.2344C151.375 61.2344 150.727 61.1133 150.172 60.8711C149.625 60.6211 149.203 60.2227 148.906 59.6758C148.609 59.1289 148.461 58.4102 148.461 57.5195V45.1914ZM159.5 48.3203V61H156.113V48.3203H159.5ZM155.902 45.0156C155.902 44.5234 156.074 44.1172 156.418 43.7969C156.762 43.4766 157.223 43.3164 157.801 43.3164C158.371 43.3164 158.828 43.4766 159.172 43.7969C159.523 44.1172 159.699 44.5234 159.699 45.0156C159.699 45.5078 159.523 45.9141 159.172 46.2344C158.828 46.5547 158.371 46.7148 157.801 46.7148C157.223 46.7148 156.762 46.5547 156.418 46.2344C156.074 45.9141 155.902 45.5078 155.902 45.0156ZM166.602 58.5391L169.414 48.3203H172.941L168.664 61H166.531L166.602 58.5391ZM164.668 48.3203L167.492 58.5508L167.551 61H165.406L161.129 48.3203H164.668ZM180.125 61.2344C179.141 61.2344 178.258 61.0781 177.477 60.7656C176.695 60.4453 176.031 60.0039 175.484 59.4414C174.945 58.8789 174.531 58.2266 174.242 57.4844C173.953 56.7344 173.809 55.9375 173.809 55.0938V54.625C173.809 53.6641 173.945 52.7852 174.219 51.9883C174.492 51.1914 174.883 50.5 175.391 49.9141C175.906 49.3281 176.531 48.8789 177.266 48.5664C178 48.2461 178.828 48.0859 179.75 48.0859C180.648 48.0859 181.445 48.2344 182.141 48.5312C182.836 48.8281 183.418 49.25 183.887 49.7969C184.363 50.3438 184.723 51 184.965 51.7656C185.207 52.5234 185.328 53.3672 185.328 54.2969V55.7031H175.25V53.4531H182.012V53.1953C182.012 52.7266 181.926 52.3086 181.754 51.9414C181.59 51.5664 181.34 51.2695 181.004 51.0508C180.668 50.832 180.238 50.7227 179.715 50.7227C179.27 50.7227 178.887 50.8203 178.566 51.0156C178.246 51.2109 177.984 51.4844 177.781 51.8359C177.586 52.1875 177.438 52.6016 177.336 53.0781C177.242 53.5469 177.195 54.0625 177.195 54.625V55.0938C177.195 55.6016 177.266 56.0703 177.406 56.5C177.555 56.9297 177.762 57.3008 178.027 57.6133C178.301 57.9258 178.629 58.168 179.012 58.3398C179.402 58.5117 179.844 58.5977 180.336 58.5977C180.945 58.5977 181.512 58.4805 182.035 58.2461C182.566 58.0039 183.023 57.6406 183.406 57.1562L185.047 58.9375C184.781 59.3203 184.418 59.6875 183.957 60.0391C183.504 60.3906 182.957 60.6797 182.316 60.9062C181.676 61.125 180.945 61.2344 180.125 61.2344ZM189.066 43.9375H192.043L196.426 56.4648L200.809 43.9375H203.785L197.621 61H195.23L189.066 43.9375ZM187.461 43.9375H190.426L190.965 56.1484V61H187.461V43.9375ZM202.426 43.9375H205.402V61H201.887V56.1484L202.426 43.9375ZM219.453 58.2578V61H210.863V58.2578H219.453ZM212 43.9375V61H208.484V43.9375H212Z" fill="#888888"/>
<path d="M75.125 84.875V119H66.8984V84.875H75.125ZM85.3906 84.875V91.2266H56.8672V84.875H85.3906ZM98.6797 119.469C96.6172 119.469 94.7734 119.148 93.1484 118.508C91.5234 117.852 90.1484 116.953 89.0234 115.812C87.9141 114.672 87.0625 113.359 86.4688 111.875C85.8906 110.391 85.6016 108.82 85.6016 107.164V106.273C85.6016 104.414 85.8594 102.695 86.375 101.117C86.8906 99.5234 87.6562 98.1328 88.6719 96.9453C89.6875 95.7578 90.9609 94.8359 92.4922 94.1797C94.0234 93.5078 95.8047 93.1719 97.8359 93.1719C99.6328 93.1719 101.242 93.4609 102.664 94.0391C104.086 94.6172 105.289 95.4453 106.273 96.5234C107.273 97.6016 108.031 98.9062 108.547 100.438C109.078 101.969 109.344 103.688 109.344 105.594V108.805H88.625V103.859H101.633V103.25C101.648 102.406 101.5 101.688 101.188 101.094C100.891 100.5 100.453 100.047 99.875 99.7344C99.2969 99.4219 98.5938 99.2656 97.7656 99.2656C96.9062 99.2656 96.1953 99.4531 95.6328 99.8281C95.0859 100.203 94.6562 100.719 94.3438 101.375C94.0469 102.016 93.8359 102.758 93.7109 103.602C93.5859 104.445 93.5234 105.336 93.5234 106.273V107.164C93.5234 108.102 93.6484 108.953 93.8984 109.719C94.1641 110.484 94.5391 111.141 95.0234 111.688C95.5234 112.219 96.1172 112.633 96.8047 112.93C97.5078 113.227 98.3047 113.375 99.1953 113.375C100.273 113.375 101.336 113.172 102.383 112.766C103.43 112.359 104.328 111.688 105.078 110.75L108.664 115.016C108.148 115.75 107.414 116.461 106.461 117.148C105.523 117.836 104.398 118.398 103.086 118.836C101.773 119.258 100.305 119.469 98.6797 119.469ZM123.266 113.375C124 113.375 124.625 113.242 125.141 112.977C125.672 112.695 126.07 112.305 126.336 111.805C126.617 111.289 126.75 110.672 126.734 109.953H134.164C134.18 111.859 133.711 113.531 132.758 114.969C131.82 116.391 130.539 117.5 128.914 118.297C127.305 119.078 125.484 119.469 123.453 119.469C121.469 119.469 119.734 119.148 118.25 118.508C116.766 117.852 115.523 116.945 114.523 115.789C113.539 114.617 112.797 113.25 112.297 111.688C111.812 110.125 111.57 108.43 111.57 106.602V106.062C111.57 104.234 111.812 102.539 112.297 100.977C112.797 99.3984 113.539 98.0312 114.523 96.875C115.523 95.7031 116.758 94.7969 118.227 94.1562C119.711 93.5 121.438 93.1719 123.406 93.1719C125.516 93.1719 127.375 93.5703 128.984 94.3672C130.609 95.1641 131.883 96.3203 132.805 97.8359C133.727 99.3516 134.18 101.188 134.164 103.344H126.734C126.75 102.578 126.633 101.891 126.383 101.281C126.133 100.672 125.742 100.188 125.211 99.8281C124.695 99.4531 124.031 99.2656 123.219 99.2656C122.406 99.2656 121.75 99.4453 121.25 99.8047C120.75 100.164 120.367 100.664 120.102 101.305C119.852 101.93 119.68 102.648 119.586 103.461C119.508 104.273 119.469 105.141 119.469 106.062V106.602C119.469 107.539 119.508 108.422 119.586 109.25C119.68 110.062 119.859 110.781 120.125 111.406C120.391 112.016 120.773 112.5 121.273 112.859C121.773 113.203 122.438 113.375 123.266 113.375ZM145.273 83V119H137.375V83H145.273ZM144.336 105.453L142.484 105.5C142.484 103.719 142.703 102.078 143.141 100.578C143.578 99.0781 144.203 97.7734 145.016 96.6641C145.828 95.5547 146.805 94.6953 147.945 94.0859C149.086 93.4766 150.352 93.1719 151.742 93.1719C152.992 93.1719 154.133 93.3516 155.164 93.7109C156.211 94.0703 157.109 94.6484 157.859 95.4453C158.625 96.2422 159.211 97.2812 159.617 98.5625C160.039 99.8438 160.25 101.406 160.25 103.25V119H152.305V103.203C152.305 102.172 152.156 101.375 151.859 100.812C151.578 100.234 151.172 99.8359 150.641 99.6172C150.109 99.3828 149.461 99.2656 148.695 99.2656C147.773 99.2656 147.023 99.4219 146.445 99.7344C145.867 100.047 145.422 100.484 145.109 101.047C144.812 101.594 144.609 102.242 144.5 102.992C144.391 103.742 144.336 104.562 144.336 105.453ZM194.539 109.93C194.539 109.398 194.461 108.922 194.305 108.5C194.148 108.062 193.859 107.656 193.438 107.281C193.016 106.906 192.406 106.531 191.609 106.156C190.828 105.766 189.797 105.359 188.516 104.938C187.016 104.438 185.57 103.875 184.18 103.25C182.789 102.609 181.547 101.867 180.453 101.023C179.359 100.164 178.492 99.1641 177.852 98.0234C177.211 96.8672 176.891 95.5234 176.891 93.9922C176.891 92.5234 177.219 91.2031 177.875 90.0312C178.531 88.8438 179.445 87.8359 180.617 87.0078C181.805 86.1641 183.195 85.5234 184.789 85.0859C186.383 84.6328 188.125 84.4062 190.016 84.4062C192.516 84.4062 194.719 84.8438 196.625 85.7188C198.547 86.5781 200.047 87.8047 201.125 89.3984C202.219 90.9766 202.766 92.8438 202.766 95H194.586C194.586 94.1406 194.406 93.3828 194.047 92.7266C193.703 92.0703 193.18 91.5547 192.477 91.1797C191.773 90.8047 190.891 90.6172 189.828 90.6172C188.797 90.6172 187.93 90.7734 187.227 91.0859C186.523 91.3984 185.992 91.8203 185.633 92.3516C185.273 92.8672 185.094 93.4375 185.094 94.0625C185.094 94.5781 185.234 95.0469 185.516 95.4688C185.812 95.875 186.227 96.2578 186.758 96.6172C187.305 96.9766 187.961 97.3203 188.727 97.6484C189.508 97.9766 190.383 98.2969 191.352 98.6094C193.164 99.1875 194.773 99.8359 196.18 100.555C197.602 101.258 198.797 102.062 199.766 102.969C200.75 103.859 201.492 104.875 201.992 106.016C202.508 107.156 202.766 108.445 202.766 109.883C202.766 111.414 202.469 112.773 201.875 113.961C201.281 115.148 200.43 116.156 199.32 116.984C198.211 117.797 196.883 118.414 195.336 118.836C193.789 119.258 192.062 119.469 190.156 119.469C188.406 119.469 186.68 119.25 184.977 118.812C183.289 118.359 181.758 117.672 180.383 116.75C179.008 115.812 177.906 114.617 177.078 113.164C176.266 111.695 175.859 109.953 175.859 107.938H184.109C184.109 108.938 184.242 109.781 184.508 110.469C184.773 111.156 185.164 111.711 185.68 112.133C186.195 112.539 186.828 112.836 187.578 113.023C188.328 113.195 189.188 113.281 190.156 113.281C191.203 113.281 192.047 113.133 192.688 112.836C193.328 112.523 193.797 112.117 194.094 111.617C194.391 111.102 194.539 110.539 194.539 109.93ZM219.992 93.6406V99.125H204.711V93.6406H219.992ZM207.922 87.3359H215.82V110.727C215.82 111.398 215.898 111.922 216.055 112.297C216.211 112.656 216.477 112.914 216.852 113.07C217.242 113.211 217.758 113.281 218.398 113.281C218.852 113.281 219.227 113.273 219.523 113.258C219.82 113.227 220.102 113.188 220.367 113.141V118.789C219.695 119.008 218.992 119.172 218.258 119.281C217.523 119.406 216.742 119.469 215.914 119.469C214.227 119.469 212.781 119.203 211.578 118.672C210.391 118.141 209.484 117.305 208.859 116.164C208.234 115.023 207.922 113.539 207.922 111.711V87.3359ZM236.305 112.625V102.172C236.305 101.453 236.203 100.836 236 100.32C235.797 99.8047 235.477 99.4062 235.039 99.125C234.602 98.8281 234.016 98.6797 233.281 98.6797C232.688 98.6797 232.18 98.7812 231.758 98.9844C231.336 99.1875 231.016 99.4922 230.797 99.8984C230.578 100.305 230.469 100.82 230.469 101.445H222.57C222.57 100.273 222.828 99.1875 223.344 98.1875C223.875 97.1719 224.625 96.2891 225.594 95.5391C226.578 94.7891 227.75 94.2109 229.109 93.8047C230.484 93.3828 232.016 93.1719 233.703 93.1719C235.719 93.1719 237.516 93.5078 239.094 94.1797C240.688 94.8516 241.945 95.8594 242.867 97.2031C243.789 98.5312 244.25 100.203 244.25 102.219V112.602C244.25 114.258 244.344 115.516 244.531 116.375C244.719 117.219 244.984 117.961 245.328 118.602V119H237.406C237.031 118.219 236.75 117.266 236.562 116.141C236.391 115 236.305 113.828 236.305 112.625ZM237.266 103.508L237.312 107.727H233.82C233.086 107.727 232.461 107.828 231.945 108.031C231.445 108.234 231.039 108.516 230.727 108.875C230.43 109.219 230.211 109.609 230.07 110.047C229.945 110.484 229.883 110.945 229.883 111.43C229.883 111.898 229.992 112.32 230.211 112.695C230.445 113.055 230.758 113.336 231.148 113.539C231.539 113.742 231.977 113.844 232.461 113.844C233.336 113.844 234.078 113.68 234.688 113.352C235.312 113.008 235.789 112.594 236.117 112.109C236.445 111.625 236.609 111.172 236.609 110.75L238.344 113.984C238.031 114.609 237.672 115.242 237.266 115.883C236.875 116.523 236.383 117.117 235.789 117.664C235.211 118.195 234.5 118.633 233.656 118.977C232.812 119.305 231.789 119.469 230.586 119.469C229.023 119.469 227.586 119.148 226.273 118.508C224.977 117.867 223.938 116.977 223.156 115.836C222.375 114.68 221.984 113.352 221.984 111.852C221.984 110.539 222.219 109.367 222.688 108.336C223.172 107.305 223.898 106.43 224.867 105.711C225.836 104.992 227.07 104.445 228.57 104.07C230.07 103.695 231.836 103.508 233.867 103.508H237.266ZM259.344 113.375C260.078 113.375 260.703 113.242 261.219 112.977C261.75 112.695 262.148 112.305 262.414 111.805C262.695 111.289 262.828 110.672 262.812 109.953H270.242C270.258 111.859 269.789 113.531 268.836 114.969C267.898 116.391 266.617 117.5 264.992 118.297C263.383 119.078 261.562 119.469 259.531 119.469C257.547 119.469 255.812 119.148 254.328 118.508C252.844 117.852 251.602 116.945 250.602 115.789C249.617 114.617 248.875 113.25 248.375 111.688C247.891 110.125 247.648 108.43 247.648 106.602V106.062C247.648 104.234 247.891 102.539 248.375 100.977C248.875 99.3984 249.617 98.0312 250.602 96.875C251.602 95.7031 252.836 94.7969 254.305 94.1562C255.789 93.5 257.516 93.1719 259.484 93.1719C261.594 93.1719 263.453 93.5703 265.062 94.3672C266.688 95.1641 267.961 96.3203 268.883 97.8359C269.805 99.3516 270.258 101.188 270.242 103.344H262.812C262.828 102.578 262.711 101.891 262.461 101.281C262.211 100.672 261.82 100.188 261.289 99.8281C260.773 99.4531 260.109 99.2656 259.297 99.2656C258.484 99.2656 257.828 99.4453 257.328 99.8047C256.828 100.164 256.445 100.664 256.18 101.305C255.93 101.93 255.758 102.648 255.664 103.461C255.586 104.273 255.547 105.141 255.547 106.062V106.602C255.547 107.539 255.586 108.422 255.664 109.25C255.758 110.062 255.938 110.781 256.203 111.406C256.469 112.016 256.852 112.5 257.352 112.859C257.852 113.203 258.516 113.375 259.344 113.375ZM281.586 82.9766V119H273.688V82.9766H281.586ZM297.805 93.6406L286.789 106.555L281.023 112.32L277.578 107.305L282.383 101.047L288.336 93.6406H297.805ZM289.344 119L282.57 107.445L288.406 103.297L298.391 119H289.344ZM313.156 111.875C313.156 111.438 313.008 111.062 312.711 110.75C312.43 110.422 311.93 110.125 311.211 109.859C310.492 109.578 309.484 109.297 308.188 109.016C306.953 108.75 305.789 108.398 304.695 107.961C303.617 107.523 302.672 106.992 301.859 106.367C301.047 105.742 300.406 105 299.938 104.141C299.484 103.281 299.258 102.297 299.258 101.188C299.258 100.109 299.484 99.0938 299.938 98.1406C300.406 97.1719 301.086 96.3203 301.977 95.5859C302.883 94.8359 303.984 94.25 305.281 93.8281C306.578 93.3906 308.055 93.1719 309.711 93.1719C311.992 93.1719 313.961 93.5234 315.617 94.2266C317.273 94.9141 318.547 95.8828 319.438 97.1328C320.344 98.3672 320.797 99.7969 320.797 101.422H312.898C312.898 100.781 312.789 100.234 312.57 99.7812C312.367 99.3281 312.031 98.9844 311.562 98.75C311.094 98.5 310.469 98.375 309.688 98.375C309.141 98.375 308.641 98.4766 308.188 98.6797C307.75 98.8828 307.398 99.1641 307.133 99.5234C306.867 99.8828 306.734 100.305 306.734 100.789C306.734 101.133 306.812 101.445 306.969 101.727C307.141 101.992 307.398 102.242 307.742 102.477C308.086 102.695 308.523 102.898 309.055 103.086C309.586 103.258 310.227 103.414 310.977 103.555C312.68 103.867 314.273 104.312 315.758 104.891C317.242 105.469 318.445 106.289 319.367 107.352C320.305 108.414 320.773 109.844 320.773 111.641C320.773 112.766 320.516 113.805 320 114.758C319.484 115.695 318.742 116.523 317.773 117.242C316.805 117.945 315.641 118.492 314.281 118.883C312.922 119.273 311.391 119.469 309.688 119.469C307.266 119.469 305.219 119.039 303.547 118.18C301.875 117.305 300.609 116.211 299.75 114.898C298.906 113.57 298.484 112.227 298.484 110.867H305.844C305.875 111.648 306.062 112.289 306.406 112.789C306.766 113.289 307.242 113.656 307.836 113.891C308.43 114.125 309.117 114.242 309.898 114.242C310.617 114.242 311.211 114.141 311.68 113.938C312.164 113.734 312.531 113.461 312.781 113.117C313.031 112.758 313.156 112.344 313.156 111.875Z" fill="black"/>
</svg>
