<svg width="1363" height="163" viewBox="0 0 1363 163" fill="none" xmlns="http://www.w3.org/2000/svg">
<path d="M0 15C0 6.71573 6.71573 0 15 0H37V163H15C6.71573 163 0 156.284 0 148V15Z" fill="#FFD700"/>
<rect width="1097" height="163" transform="translate(37)" fill="#F0F0F0"/>
<path d="M101.906 53.9219L94.3945 51.2383V48.0859L104.602 52.375V54.6367L101.906 53.9219ZM94.3945 56.1719L101.918 53.4297L104.602 52.7852V55.0352L94.3945 59.3242V56.1719ZM116.637 43.9375V61H113.133V43.9375H116.637ZM123.023 51.0273V61H119.648V48.3203H122.812L123.023 51.0273ZM122.531 54.2148H121.617C121.617 53.2773 121.738 52.4336 121.98 51.6836C122.223 50.9258 122.562 50.2812 123 49.75C123.438 49.2109 123.957 48.8008 124.559 48.5195C125.168 48.2305 125.848 48.0859 126.598 48.0859C127.191 48.0859 127.734 48.1719 128.227 48.3438C128.719 48.5156 129.141 48.7891 129.492 49.1641C129.852 49.5391 130.125 50.0352 130.312 50.6523C130.508 51.2695 130.605 52.0234 130.605 52.9141V61H127.207V52.9023C127.207 52.3398 127.129 51.9023 126.973 51.5898C126.816 51.2773 126.586 51.0586 126.281 50.9336C125.984 50.8008 125.617 50.7344 125.18 50.7344C124.727 50.7344 124.332 50.8242 123.996 51.0039C123.668 51.1836 123.395 51.4336 123.176 51.7539C122.965 52.0664 122.805 52.4336 122.695 52.8555C122.586 53.2773 122.531 53.7305 122.531 54.2148ZM136.477 51.0273V61H133.102V48.3203H136.266L136.477 51.0273ZM135.984 54.2148H135.07C135.07 53.2773 135.191 52.4336 135.434 51.6836C135.676 50.9258 136.016 50.2812 136.453 49.75C136.891 49.2109 137.41 48.8008 138.012 48.5195C138.621 48.2305 139.301 48.0859 140.051 48.0859C140.645 48.0859 141.188 48.1719 141.68 48.3438C142.172 48.5156 142.594 48.7891 142.945 49.1641C143.305 49.5391 143.578 50.0352 143.766 50.6523C143.961 51.2695 144.059 52.0234 144.059 52.9141V61H140.66V52.9023C140.66 52.3398 140.582 51.9023 140.426 51.5898C140.27 51.2773 140.039 51.0586 139.734 50.9336C139.438 50.8008 139.07 50.7344 138.633 50.7344C138.18 50.7344 137.785 50.8242 137.449 51.0039C137.121 51.1836 136.848 51.4336 136.629 51.7539C136.418 52.0664 136.258 52.4336 136.148 52.8555C136.039 53.2773 135.984 53.7305 135.984 54.2148ZM146.086 54.7891V54.543C146.086 53.6133 146.219 52.7578 146.484 51.9766C146.75 51.1875 147.137 50.5039 147.645 49.9258C148.152 49.3477 148.777 48.8984 149.52 48.5781C150.262 48.25 151.113 48.0859 152.074 48.0859C153.035 48.0859 153.891 48.25 154.641 48.5781C155.391 48.8984 156.02 49.3477 156.527 49.9258C157.043 50.5039 157.434 51.1875 157.699 51.9766C157.965 52.7578 158.098 53.6133 158.098 54.543V54.7891C158.098 55.7109 157.965 56.5664 157.699 57.3555C157.434 58.1367 157.043 58.8203 156.527 59.4062C156.02 59.9844 155.395 60.4336 154.652 60.7539C153.91 61.0742 153.059 61.2344 152.098 61.2344C151.137 61.2344 150.281 61.0742 149.531 60.7539C148.789 60.4336 148.16 59.9844 147.645 59.4062C147.137 58.8203 146.75 58.1367 146.484 57.3555C146.219 56.5664 146.086 55.7109 146.086 54.7891ZM149.461 54.543V54.7891C149.461 55.3203 149.508 55.8164 149.602 56.2773C149.695 56.7383 149.844 57.1445 150.047 57.4961C150.258 57.8398 150.531 58.1094 150.867 58.3047C151.203 58.5 151.613 58.5977 152.098 58.5977C152.566 58.5977 152.969 58.5 153.305 58.3047C153.641 58.1094 153.91 57.8398 154.113 57.4961C154.316 57.1445 154.465 56.7383 154.559 56.2773C154.66 55.8164 154.711 55.3203 154.711 54.7891V54.543C154.711 54.0273 154.66 53.543 154.559 53.0898C154.465 52.6289 154.312 52.2227 154.102 51.8711C153.898 51.5117 153.629 51.2305 153.293 51.0273C152.957 50.8242 152.551 50.7227 152.074 50.7227C151.598 50.7227 151.191 50.8242 150.855 51.0273C150.527 51.2305 150.258 51.5117 150.047 51.8711C149.844 52.2227 149.695 52.6289 149.602 53.0898C149.508 53.543 149.461 54.0273 149.461 54.543ZM164.297 58.5391L167.109 48.3203H170.637L166.359 61H164.227L164.297 58.5391ZM162.363 48.3203L165.188 58.5508L165.246 61H163.102L158.824 48.3203H162.363ZM178.805 58.1406V52.4922C178.805 52.0859 178.738 51.7383 178.605 51.4492C178.473 51.1523 178.266 50.9219 177.984 50.7578C177.711 50.5938 177.355 50.5117 176.918 50.5117C176.543 50.5117 176.219 50.5781 175.945 50.7109C175.672 50.8359 175.461 51.0195 175.312 51.2617C175.164 51.4961 175.09 51.7734 175.09 52.0938H171.715C171.715 51.5547 171.84 51.043 172.09 50.5586C172.34 50.0742 172.703 49.6484 173.18 49.2812C173.656 48.9062 174.223 48.6133 174.879 48.4023C175.543 48.1914 176.285 48.0859 177.105 48.0859C178.09 48.0859 178.965 48.25 179.73 48.5781C180.496 48.9062 181.098 49.3984 181.535 50.0547C181.98 50.7109 182.203 51.5312 182.203 52.5156V57.9414C182.203 58.6367 182.246 59.207 182.332 59.6523C182.418 60.0898 182.543 60.4727 182.707 60.8008V61H179.297C179.133 60.6562 179.008 60.2266 178.922 59.7109C178.844 59.1875 178.805 58.6641 178.805 58.1406ZM179.25 53.2773L179.273 55.1875H177.387C176.941 55.1875 176.555 55.2383 176.227 55.3398C175.898 55.4414 175.629 55.5859 175.418 55.7734C175.207 55.9531 175.051 56.1641 174.949 56.4062C174.855 56.6484 174.809 56.9141 174.809 57.2031C174.809 57.4922 174.875 57.7539 175.008 57.9883C175.141 58.2148 175.332 58.3945 175.582 58.5273C175.832 58.6523 176.125 58.7148 176.461 58.7148C176.969 58.7148 177.41 58.6133 177.785 58.4102C178.16 58.207 178.449 57.957 178.652 57.6602C178.863 57.3633 178.973 57.082 178.98 56.8164L179.871 58.2461C179.746 58.5664 179.574 58.8984 179.355 59.2422C179.145 59.5859 178.875 59.9102 178.547 60.2148C178.219 60.5117 177.824 60.7578 177.363 60.9531C176.902 61.1406 176.355 61.2344 175.723 61.2344C174.918 61.2344 174.188 61.0742 173.531 60.7539C172.883 60.4258 172.367 59.9766 171.984 59.4062C171.609 58.8281 171.422 58.1719 171.422 57.4375C171.422 56.7734 171.547 56.1836 171.797 55.668C172.047 55.1523 172.414 54.7188 172.898 54.3672C173.391 54.0078 174.004 53.7383 174.738 53.5586C175.473 53.3711 176.324 53.2773 177.293 53.2773H179.25ZM191.016 48.3203V50.7109H183.633V48.3203H191.016ZM185.461 45.1914H188.836V57.1797C188.836 57.5469 188.883 57.8281 188.977 58.0234C189.078 58.2188 189.227 58.3555 189.422 58.4336C189.617 58.5039 189.863 58.5391 190.16 58.5391C190.371 58.5391 190.559 58.5312 190.723 58.5156C190.895 58.4922 191.039 58.4688 191.156 58.4453L191.168 60.9297C190.879 61.0234 190.566 61.0977 190.23 61.1523C189.895 61.207 189.523 61.2344 189.117 61.2344C188.375 61.2344 187.727 61.1133 187.172 60.8711C186.625 60.6211 186.203 60.2227 185.906 59.6758C185.609 59.1289 185.461 58.4102 185.461 57.5195V45.1914ZM196.5 48.3203V61H193.113V48.3203H196.5ZM192.902 45.0156C192.902 44.5234 193.074 44.1172 193.418 43.7969C193.762 43.4766 194.223 43.3164 194.801 43.3164C195.371 43.3164 195.828 43.4766 196.172 43.7969C196.523 44.1172 196.699 44.5234 196.699 45.0156C196.699 45.5078 196.523 45.9141 196.172 46.2344C195.828 46.5547 195.371 46.7148 194.801 46.7148C194.223 46.7148 193.762 46.5547 193.418 46.2344C193.074 45.9141 192.902 45.5078 192.902 45.0156ZM203.602 58.5391L206.414 48.3203H209.941L205.664 61H203.531L203.602 58.5391ZM201.668 48.3203L204.492 58.5508L204.551 61H202.406L198.129 48.3203H201.668ZM217.125 61.2344C216.141 61.2344 215.258 61.0781 214.477 60.7656C213.695 60.4453 213.031 60.0039 212.484 59.4414C211.945 58.8789 211.531 58.2266 211.242 57.4844C210.953 56.7344 210.809 55.9375 210.809 55.0938V54.625C210.809 53.6641 210.945 52.7852 211.219 51.9883C211.492 51.1914 211.883 50.5 212.391 49.9141C212.906 49.3281 213.531 48.8789 214.266 48.5664C215 48.2461 215.828 48.0859 216.75 48.0859C217.648 48.0859 218.445 48.2344 219.141 48.5312C219.836 48.8281 220.418 49.25 220.887 49.7969C221.363 50.3438 221.723 51 221.965 51.7656C222.207 52.5234 222.328 53.3672 222.328 54.2969V55.7031H212.25V53.4531H219.012V53.1953C219.012 52.7266 218.926 52.3086 218.754 51.9414C218.59 51.5664 218.34 51.2695 218.004 51.0508C217.668 50.832 217.238 50.7227 216.715 50.7227C216.27 50.7227 215.887 50.8203 215.566 51.0156C215.246 51.2109 214.984 51.4844 214.781 51.8359C214.586 52.1875 214.438 52.6016 214.336 53.0781C214.242 53.5469 214.195 54.0625 214.195 54.625V55.0938C214.195 55.6016 214.266 56.0703 214.406 56.5C214.555 56.9297 214.762 57.3008 215.027 57.6133C215.301 57.9258 215.629 58.168 216.012 58.3398C216.402 58.5117 216.844 58.5977 217.336 58.5977C217.945 58.5977 218.512 58.4805 219.035 58.2461C219.566 58.0039 220.023 57.6406 220.406 57.1562L222.047 58.9375C221.781 59.3203 221.418 59.6875 220.957 60.0391C220.504 60.3906 219.957 60.6797 219.316 60.9062C218.676 61.125 217.945 61.2344 217.125 61.2344ZM226.066 43.9375H229.043L233.426 56.4648L237.809 43.9375H240.785L234.621 61H232.23L226.066 43.9375ZM224.461 43.9375H227.426L227.965 56.1484V61H224.461V43.9375ZM239.426 43.9375H242.402V61H238.887V56.1484L239.426 43.9375ZM256.453 58.2578V61H247.863V58.2578H256.453ZM249 43.9375V61H245.484V43.9375H249Z" fill="#888888"/>
<path d="M114.117 84.875H122.344V107.164C122.344 109.82 121.789 112.07 120.68 113.914C119.57 115.742 118.016 117.125 116.016 118.062C114.016 119 111.664 119.469 108.961 119.469C106.289 119.469 103.938 119 101.906 118.062C99.8906 117.125 98.3125 115.742 97.1719 113.914C96.0469 112.07 95.4844 109.82 95.4844 107.164V84.875H103.734V107.164C103.734 108.57 103.938 109.719 104.344 110.609C104.75 111.484 105.344 112.125 106.125 112.531C106.906 112.938 107.852 113.141 108.961 113.141C110.086 113.141 111.031 112.938 111.797 112.531C112.562 112.125 113.141 111.484 113.531 110.609C113.922 109.719 114.117 108.57 114.117 107.164V84.875ZM136.266 84.875V119H128.062V84.875H136.266ZM172.523 84.875H180.75V107.164C180.75 109.82 180.195 112.07 179.086 113.914C177.977 115.742 176.422 117.125 174.422 118.062C172.422 119 170.07 119.469 167.367 119.469C164.695 119.469 162.344 119 160.312 118.062C158.297 117.125 156.719 115.742 155.578 113.914C154.453 112.07 153.891 109.82 153.891 107.164V84.875H162.141V107.164C162.141 108.57 162.344 109.719 162.75 110.609C163.156 111.484 163.75 112.125 164.531 112.531C165.312 112.938 166.258 113.141 167.367 113.141C168.492 113.141 169.438 112.938 170.203 112.531C170.969 112.125 171.547 111.484 171.938 110.609C172.328 109.719 172.523 108.57 172.523 107.164V84.875ZM193.078 84.875L198.656 96.2188L204.234 84.875H213.609L204.094 101.797L213.867 119H204.398L198.656 107.445L192.914 119H183.422L193.219 101.797L183.68 84.875H193.078Z" fill="black"/>
<path d="M1134 0H1348C1356.28 0 1363 6.71573 1363 15V148C1363 156.284 1356.28 163 1348 163H1134V0Z" fill="#1261A9"/>
<path d="M1248.5 111.917C1244.51 111.917 1240.55 111.13 1236.86 109.601C1233.17 108.073 1229.82 105.832 1226.99 103.008C1221.29 97.3036 1218.08 89.567 1218.08 81.5C1218.08 73.433 1221.29 65.6964 1226.99 59.9922C1232.7 54.2879 1240.43 51.0833 1248.5 51.0833C1265.23 51.0833 1278.92 63.25 1278.92 78.4583C1278.92 83.2985 1276.99 87.9405 1273.57 91.363C1270.15 94.7856 1265.51 96.7083 1260.67 96.7083H1255.19C1254.28 96.7083 1253.67 97.3167 1253.67 98.2292C1253.67 98.5333 1253.97 98.8375 1253.97 99.1417C1255.19 100.662 1255.8 102.487 1255.8 104.312C1256.1 108.571 1252.76 111.917 1248.5 111.917ZM1248.5 57.1667C1242.05 57.1667 1235.86 59.7303 1231.29 64.2937C1226.73 68.8571 1224.17 75.0464 1224.17 81.5C1224.17 87.9536 1226.73 94.1429 1231.29 98.7063C1235.86 103.27 1242.05 105.833 1248.5 105.833C1249.41 105.833 1250.02 105.225 1250.02 104.312C1250.02 103.704 1249.72 103.4 1249.72 103.096C1248.5 101.575 1247.89 100.054 1247.89 98.2292C1247.89 93.9708 1251.24 90.625 1255.5 90.625H1260.67C1263.89 90.625 1266.99 89.3432 1269.27 87.0615C1271.55 84.7798 1272.83 81.6851 1272.83 78.4583C1272.83 66.5958 1261.88 57.1667 1248.5 57.1667ZM1231.77 75.4167C1234.2 75.4167 1236.33 77.5458 1236.33 79.9792C1236.33 82.4125 1234.2 84.5417 1231.77 84.5417C1229.34 84.5417 1227.21 82.4125 1227.21 79.9792C1227.21 77.5458 1229.34 75.4167 1231.77 75.4167ZM1240.9 63.25C1243.33 63.25 1245.46 65.3792 1245.46 67.8125C1245.46 70.2458 1243.33 72.375 1240.9 72.375C1238.46 72.375 1236.33 70.2458 1236.33 67.8125C1236.33 65.3792 1238.46 63.25 1240.9 63.25ZM1256.1 63.25C1258.54 63.25 1260.67 65.3792 1260.67 67.8125C1260.67 70.2458 1258.54 72.375 1256.1 72.375C1253.67 72.375 1251.54 70.2458 1251.54 67.8125C1251.54 65.3792 1253.67 63.25 1256.1 63.25ZM1265.23 75.4167C1267.66 75.4167 1269.79 77.5458 1269.79 79.9792C1269.79 82.4125 1267.66 84.5417 1265.23 84.5417C1262.8 84.5417 1260.67 82.4125 1260.67 79.9792C1260.67 77.5458 1262.8 75.4167 1265.23 75.4167Z" fill="white"/>
</svg>
