<svg width="1363" height="163" viewBox="0 0 1363 163" fill="none" xmlns="http://www.w3.org/2000/svg">
<path d="M0 15C0 6.71573 6.71573 0 15 0H37V163H15C6.71573 163 0 156.284 0 148V15Z" fill="#FFD700"/>
<rect width="1097" height="163" transform="translate(37)" fill="#F0F0F0"/>
<path d="M101.906 53.9219L94.3945 51.2383V48.0859L104.602 52.375V54.6367L101.906 53.9219ZM94.3945 56.1719L101.918 53.4297L104.602 52.7852V55.0352L94.3945 59.3242V56.1719ZM116.637 43.9375V61H113.133V43.9375H116.637ZM123.023 51.0273V61H119.648V48.3203H122.812L123.023 51.0273ZM122.531 54.2148H121.617C121.617 53.2773 121.738 52.4336 121.98 51.6836C122.223 50.9258 122.562 50.2812 123 49.75C123.438 49.2109 123.957 48.8008 124.559 48.5195C125.168 48.2305 125.848 48.0859 126.598 48.0859C127.191 48.0859 127.734 48.1719 128.227 48.3438C128.719 48.5156 129.141 48.7891 129.492 49.1641C129.852 49.5391 130.125 50.0352 130.312 50.6523C130.508 51.2695 130.605 52.0234 130.605 52.9141V61H127.207V52.9023C127.207 52.3398 127.129 51.9023 126.973 51.5898C126.816 51.2773 126.586 51.0586 126.281 50.9336C125.984 50.8008 125.617 50.7344 125.18 50.7344C124.727 50.7344 124.332 50.8242 123.996 51.0039C123.668 51.1836 123.395 51.4336 123.176 51.7539C122.965 52.0664 122.805 52.4336 122.695 52.8555C122.586 53.2773 122.531 53.7305 122.531 54.2148ZM136.477 51.0273V61H133.102V48.3203H136.266L136.477 51.0273ZM135.984 54.2148H135.07C135.07 53.2773 135.191 52.4336 135.434 51.6836C135.676 50.9258 136.016 50.2812 136.453 49.75C136.891 49.2109 137.41 48.8008 138.012 48.5195C138.621 48.2305 139.301 48.0859 140.051 48.0859C140.645 48.0859 141.188 48.1719 141.68 48.3438C142.172 48.5156 142.594 48.7891 142.945 49.1641C143.305 49.5391 143.578 50.0352 143.766 50.6523C143.961 51.2695 144.059 52.0234 144.059 52.9141V61H140.66V52.9023C140.66 52.3398 140.582 51.9023 140.426 51.5898C140.27 51.2773 140.039 51.0586 139.734 50.9336C139.438 50.8008 139.07 50.7344 138.633 50.7344C138.18 50.7344 137.785 50.8242 137.449 51.0039C137.121 51.1836 136.848 51.4336 136.629 51.7539C136.418 52.0664 136.258 52.4336 136.148 52.8555C136.039 53.2773 135.984 53.7305 135.984 54.2148ZM146.086 54.7891V54.543C146.086 53.6133 146.219 52.7578 146.484 51.9766C146.75 51.1875 147.137 50.5039 147.645 49.9258C148.152 49.3477 148.777 48.8984 149.52 48.5781C150.262 48.25 151.113 48.0859 152.074 48.0859C153.035 48.0859 153.891 48.25 154.641 48.5781C155.391 48.8984 156.02 49.3477 156.527 49.9258C157.043 50.5039 157.434 51.1875 157.699 51.9766C157.965 52.7578 158.098 53.6133 158.098 54.543V54.7891C158.098 55.7109 157.965 56.5664 157.699 57.3555C157.434 58.1367 157.043 58.8203 156.527 59.4062C156.02 59.9844 155.395 60.4336 154.652 60.7539C153.91 61.0742 153.059 61.2344 152.098 61.2344C151.137 61.2344 150.281 61.0742 149.531 60.7539C148.789 60.4336 148.16 59.9844 147.645 59.4062C147.137 58.8203 146.75 58.1367 146.484 57.3555C146.219 56.5664 146.086 55.7109 146.086 54.7891ZM149.461 54.543V54.7891C149.461 55.3203 149.508 55.8164 149.602 56.2773C149.695 56.7383 149.844 57.1445 150.047 57.4961C150.258 57.8398 150.531 58.1094 150.867 58.3047C151.203 58.5 151.613 58.5977 152.098 58.5977C152.566 58.5977 152.969 58.5 153.305 58.3047C153.641 58.1094 153.91 57.8398 154.113 57.4961C154.316 57.1445 154.465 56.7383 154.559 56.2773C154.66 55.8164 154.711 55.3203 154.711 54.7891V54.543C154.711 54.0273 154.66 53.543 154.559 53.0898C154.465 52.6289 154.312 52.2227 154.102 51.8711C153.898 51.5117 153.629 51.2305 153.293 51.0273C152.957 50.8242 152.551 50.7227 152.074 50.7227C151.598 50.7227 151.191 50.8242 150.855 51.0273C150.527 51.2305 150.258 51.5117 150.047 51.8711C149.844 52.2227 149.695 52.6289 149.602 53.0898C149.508 53.543 149.461 54.0273 149.461 54.543ZM164.297 58.5391L167.109 48.3203H170.637L166.359 61H164.227L164.297 58.5391ZM162.363 48.3203L165.188 58.5508L165.246 61H163.102L158.824 48.3203H162.363ZM178.805 58.1406V52.4922C178.805 52.0859 178.738 51.7383 178.605 51.4492C178.473 51.1523 178.266 50.9219 177.984 50.7578C177.711 50.5938 177.355 50.5117 176.918 50.5117C176.543 50.5117 176.219 50.5781 175.945 50.7109C175.672 50.8359 175.461 51.0195 175.312 51.2617C175.164 51.4961 175.09 51.7734 175.09 52.0938H171.715C171.715 51.5547 171.84 51.043 172.09 50.5586C172.34 50.0742 172.703 49.6484 173.18 49.2812C173.656 48.9062 174.223 48.6133 174.879 48.4023C175.543 48.1914 176.285 48.0859 177.105 48.0859C178.09 48.0859 178.965 48.25 179.73 48.5781C180.496 48.9062 181.098 49.3984 181.535 50.0547C181.98 50.7109 182.203 51.5312 182.203 52.5156V57.9414C182.203 58.6367 182.246 59.207 182.332 59.6523C182.418 60.0898 182.543 60.4727 182.707 60.8008V61H179.297C179.133 60.6562 179.008 60.2266 178.922 59.7109C178.844 59.1875 178.805 58.6641 178.805 58.1406ZM179.25 53.2773L179.273 55.1875H177.387C176.941 55.1875 176.555 55.2383 176.227 55.3398C175.898 55.4414 175.629 55.5859 175.418 55.7734C175.207 55.9531 175.051 56.1641 174.949 56.4062C174.855 56.6484 174.809 56.9141 174.809 57.2031C174.809 57.4922 174.875 57.7539 175.008 57.9883C175.141 58.2148 175.332 58.3945 175.582 58.5273C175.832 58.6523 176.125 58.7148 176.461 58.7148C176.969 58.7148 177.41 58.6133 177.785 58.4102C178.16 58.207 178.449 57.957 178.652 57.6602C178.863 57.3633 178.973 57.082 178.98 56.8164L179.871 58.2461C179.746 58.5664 179.574 58.8984 179.355 59.2422C179.145 59.5859 178.875 59.9102 178.547 60.2148C178.219 60.5117 177.824 60.7578 177.363 60.9531C176.902 61.1406 176.355 61.2344 175.723 61.2344C174.918 61.2344 174.188 61.0742 173.531 60.7539C172.883 60.4258 172.367 59.9766 171.984 59.4062C171.609 58.8281 171.422 58.1719 171.422 57.4375C171.422 56.7734 171.547 56.1836 171.797 55.668C172.047 55.1523 172.414 54.7188 172.898 54.3672C173.391 54.0078 174.004 53.7383 174.738 53.5586C175.473 53.3711 176.324 53.2773 177.293 53.2773H179.25ZM191.016 48.3203V50.7109H183.633V48.3203H191.016ZM185.461 45.1914H188.836V57.1797C188.836 57.5469 188.883 57.8281 188.977 58.0234C189.078 58.2188 189.227 58.3555 189.422 58.4336C189.617 58.5039 189.863 58.5391 190.16 58.5391C190.371 58.5391 190.559 58.5312 190.723 58.5156C190.895 58.4922 191.039 58.4688 191.156 58.4453L191.168 60.9297C190.879 61.0234 190.566 61.0977 190.23 61.1523C189.895 61.207 189.523 61.2344 189.117 61.2344C188.375 61.2344 187.727 61.1133 187.172 60.8711C186.625 60.6211 186.203 60.2227 185.906 59.6758C185.609 59.1289 185.461 58.4102 185.461 57.5195V45.1914ZM196.5 48.3203V61H193.113V48.3203H196.5ZM192.902 45.0156C192.902 44.5234 193.074 44.1172 193.418 43.7969C193.762 43.4766 194.223 43.3164 194.801 43.3164C195.371 43.3164 195.828 43.4766 196.172 43.7969C196.523 44.1172 196.699 44.5234 196.699 45.0156C196.699 45.5078 196.523 45.9141 196.172 46.2344C195.828 46.5547 195.371 46.7148 194.801 46.7148C194.223 46.7148 193.762 46.5547 193.418 46.2344C193.074 45.9141 192.902 45.5078 192.902 45.0156ZM203.602 58.5391L206.414 48.3203H209.941L205.664 61H203.531L203.602 58.5391ZM201.668 48.3203L204.492 58.5508L204.551 61H202.406L198.129 48.3203H201.668ZM217.125 61.2344C216.141 61.2344 215.258 61.0781 214.477 60.7656C213.695 60.4453 213.031 60.0039 212.484 59.4414C211.945 58.8789 211.531 58.2266 211.242 57.4844C210.953 56.7344 210.809 55.9375 210.809 55.0938V54.625C210.809 53.6641 210.945 52.7852 211.219 51.9883C211.492 51.1914 211.883 50.5 212.391 49.9141C212.906 49.3281 213.531 48.8789 214.266 48.5664C215 48.2461 215.828 48.0859 216.75 48.0859C217.648 48.0859 218.445 48.2344 219.141 48.5312C219.836 48.8281 220.418 49.25 220.887 49.7969C221.363 50.3438 221.723 51 221.965 51.7656C222.207 52.5234 222.328 53.3672 222.328 54.2969V55.7031H212.25V53.4531H219.012V53.1953C219.012 52.7266 218.926 52.3086 218.754 51.9414C218.59 51.5664 218.34 51.2695 218.004 51.0508C217.668 50.832 217.238 50.7227 216.715 50.7227C216.27 50.7227 215.887 50.8203 215.566 51.0156C215.246 51.2109 214.984 51.4844 214.781 51.8359C214.586 52.1875 214.438 52.6016 214.336 53.0781C214.242 53.5469 214.195 54.0625 214.195 54.625V55.0938C214.195 55.6016 214.266 56.0703 214.406 56.5C214.555 56.9297 214.762 57.3008 215.027 57.6133C215.301 57.9258 215.629 58.168 216.012 58.3398C216.402 58.5117 216.844 58.5977 217.336 58.5977C217.945 58.5977 218.512 58.4805 219.035 58.2461C219.566 58.0039 220.023 57.6406 220.406 57.1562L222.047 58.9375C221.781 59.3203 221.418 59.6875 220.957 60.0391C220.504 60.3906 219.957 60.6797 219.316 60.9062C218.676 61.125 217.945 61.2344 217.125 61.2344ZM226.066 43.9375H229.043L233.426 56.4648L237.809 43.9375H240.785L234.621 61H232.23L226.066 43.9375ZM224.461 43.9375H227.426L227.965 56.1484V61H224.461V43.9375ZM239.426 43.9375H242.402V61H238.887V56.1484L239.426 43.9375ZM256.453 58.2578V61H247.863V58.2578H256.453ZM249 43.9375V61H245.484V43.9375H249Z" fill="#888888"/>
<path d="M104.344 84.875V119H96.1406V84.875H104.344ZM117.727 99.0078V119H109.828V93.6406H117.234L117.727 99.0078ZM116.766 105.453L114.961 105.5C114.961 103.719 115.172 102.078 115.594 100.578C116.016 99.0781 116.641 97.7734 117.469 96.6641C118.297 95.5547 119.312 94.6953 120.516 94.0859C121.734 93.4766 123.141 93.1719 124.734 93.1719C125.844 93.1719 126.852 93.3438 127.758 93.6875C128.664 94.0156 129.445 94.5391 130.102 95.2578C130.758 95.9609 131.258 96.8828 131.602 98.0234C131.961 99.1484 132.141 100.5 132.141 102.078V119H124.242V103.086C124.242 102.008 124.117 101.195 123.867 100.648C123.633 100.102 123.289 99.7344 122.836 99.5469C122.383 99.3594 121.828 99.2656 121.172 99.2656C120.484 99.2656 119.867 99.4219 119.32 99.7344C118.773 100.047 118.305 100.484 117.914 101.047C117.539 101.594 117.25 102.242 117.047 102.992C116.859 103.742 116.766 104.562 116.766 105.453ZM131.25 105.453L129.047 105.5C129.047 103.719 129.242 102.078 129.633 100.578C130.039 99.0781 130.641 97.7734 131.438 96.6641C132.25 95.5547 133.258 94.6953 134.461 94.0859C135.664 93.4766 137.062 93.1719 138.656 93.1719C139.812 93.1719 140.875 93.3438 141.844 93.6875C142.812 94.0312 143.648 94.5859 144.352 95.3516C145.055 96.1172 145.602 97.1328 145.992 98.3984C146.383 99.6484 146.578 101.195 146.578 103.039V119H138.656V103.039C138.656 101.992 138.531 101.203 138.281 100.672C138.047 100.125 137.703 99.7578 137.25 99.5703C136.797 99.3672 136.258 99.2656 135.633 99.2656C134.883 99.2656 134.234 99.4219 133.688 99.7344C133.141 100.047 132.68 100.484 132.305 101.047C131.945 101.594 131.68 102.242 131.508 102.992C131.336 103.742 131.25 104.562 131.25 105.453ZM159.07 98.5156V128.75H151.172V93.6406H158.531L159.07 98.5156ZM174.633 106.016V106.508C174.633 108.352 174.422 110.062 174 111.641C173.578 113.219 172.953 114.594 172.125 115.766C171.297 116.938 170.266 117.852 169.031 118.508C167.812 119.148 166.398 119.469 164.789 119.469C163.273 119.469 161.969 119.133 160.875 118.461C159.781 117.789 158.867 116.859 158.133 115.672C157.398 114.484 156.805 113.125 156.352 111.594C155.898 110.062 155.539 108.445 155.273 106.742V106.109C155.539 104.281 155.898 102.586 156.352 101.023C156.805 99.4453 157.398 98.0703 158.133 96.8984C158.867 95.7266 159.773 94.8125 160.852 94.1562C161.945 93.5 163.25 93.1719 164.766 93.1719C166.375 93.1719 167.789 93.4766 169.008 94.0859C170.242 94.6953 171.273 95.5703 172.102 96.7109C172.945 97.8359 173.578 99.1875 174 100.766C174.422 102.344 174.633 104.094 174.633 106.016ZM166.734 106.508V106.016C166.734 105.031 166.664 104.133 166.523 103.32C166.383 102.492 166.156 101.773 165.844 101.164C165.547 100.555 165.148 100.086 164.648 99.7578C164.148 99.4297 163.531 99.2656 162.797 99.2656C161.953 99.2656 161.242 99.3984 160.664 99.6641C160.102 99.9141 159.648 100.305 159.305 100.836C158.977 101.352 158.742 102 158.602 102.781C158.477 103.547 158.422 104.445 158.438 105.477V107.398C158.406 108.586 158.523 109.633 158.789 110.539C159.055 111.43 159.516 112.125 160.172 112.625C160.828 113.125 161.719 113.375 162.844 113.375C163.594 113.375 164.219 113.203 164.719 112.859C165.219 112.5 165.617 112.008 165.914 111.383C166.211 110.742 166.422 110.008 166.547 109.18C166.672 108.352 166.734 107.461 166.734 106.508ZM186.492 83V119H178.57V83H186.492ZM203.648 119.469C201.586 119.469 199.742 119.148 198.117 118.508C196.492 117.852 195.117 116.953 193.992 115.812C192.883 114.672 192.031 113.359 191.438 111.875C190.859 110.391 190.57 108.82 190.57 107.164V106.273C190.57 104.414 190.828 102.695 191.344 101.117C191.859 99.5234 192.625 98.1328 193.641 96.9453C194.656 95.7578 195.93 94.8359 197.461 94.1797C198.992 93.5078 200.773 93.1719 202.805 93.1719C204.602 93.1719 206.211 93.4609 207.633 94.0391C209.055 94.6172 210.258 95.4453 211.242 96.5234C212.242 97.6016 213 98.9062 213.516 100.438C214.047 101.969 214.312 103.688 214.312 105.594V108.805H193.594V103.859H206.602V103.25C206.617 102.406 206.469 101.688 206.156 101.094C205.859 100.5 205.422 100.047 204.844 99.7344C204.266 99.4219 203.562 99.2656 202.734 99.2656C201.875 99.2656 201.164 99.4531 200.602 99.8281C200.055 100.203 199.625 100.719 199.312 101.375C199.016 102.016 198.805 102.758 198.68 103.602C198.555 104.445 198.492 105.336 198.492 106.273V107.164C198.492 108.102 198.617 108.953 198.867 109.719C199.133 110.484 199.508 111.141 199.992 111.688C200.492 112.219 201.086 112.633 201.773 112.93C202.477 113.227 203.273 113.375 204.164 113.375C205.242 113.375 206.305 113.172 207.352 112.766C208.398 112.359 209.297 111.688 210.047 110.75L213.633 115.016C213.117 115.75 212.383 116.461 211.43 117.148C210.492 117.836 209.367 118.398 208.055 118.836C206.742 119.258 205.273 119.469 203.648 119.469ZM225.492 99.0078V119H217.594V93.6406H225L225.492 99.0078ZM224.531 105.453L222.727 105.5C222.727 103.719 222.938 102.078 223.359 100.578C223.781 99.0781 224.406 97.7734 225.234 96.6641C226.062 95.5547 227.078 94.6953 228.281 94.0859C229.5 93.4766 230.906 93.1719 232.5 93.1719C233.609 93.1719 234.617 93.3438 235.523 93.6875C236.43 94.0156 237.211 94.5391 237.867 95.2578C238.523 95.9609 239.023 96.8828 239.367 98.0234C239.727 99.1484 239.906 100.5 239.906 102.078V119H232.008V103.086C232.008 102.008 231.883 101.195 231.633 100.648C231.398 100.102 231.055 99.7344 230.602 99.5469C230.148 99.3594 229.594 99.2656 228.938 99.2656C228.25 99.2656 227.633 99.4219 227.086 99.7344C226.539 100.047 226.07 100.484 225.68 101.047C225.305 101.594 225.016 102.242 224.812 102.992C224.625 103.742 224.531 104.562 224.531 105.453ZM239.016 105.453L236.812 105.5C236.812 103.719 237.008 102.078 237.398 100.578C237.805 99.0781 238.406 97.7734 239.203 96.6641C240.016 95.5547 241.023 94.6953 242.227 94.0859C243.43 93.4766 244.828 93.1719 246.422 93.1719C247.578 93.1719 248.641 93.3438 249.609 93.6875C250.578 94.0312 251.414 94.5859 252.117 95.3516C252.82 96.1172 253.367 97.1328 253.758 98.3984C254.148 99.6484 254.344 101.195 254.344 103.039V119H246.422V103.039C246.422 101.992 246.297 101.203 246.047 100.672C245.812 100.125 245.469 99.7578 245.016 99.5703C244.562 99.3672 244.023 99.2656 243.398 99.2656C242.648 99.2656 242 99.4219 241.453 99.7344C240.906 100.047 240.445 100.484 240.07 101.047C239.711 101.594 239.445 102.242 239.273 102.992C239.102 103.742 239.016 104.562 239.016 105.453ZM271.148 119.469C269.086 119.469 267.242 119.148 265.617 118.508C263.992 117.852 262.617 116.953 261.492 115.812C260.383 114.672 259.531 113.359 258.938 111.875C258.359 110.391 258.07 108.82 258.07 107.164V106.273C258.07 104.414 258.328 102.695 258.844 101.117C259.359 99.5234 260.125 98.1328 261.141 96.9453C262.156 95.7578 263.43 94.8359 264.961 94.1797C266.492 93.5078 268.273 93.1719 270.305 93.1719C272.102 93.1719 273.711 93.4609 275.133 94.0391C276.555 94.6172 277.758 95.4453 278.742 96.5234C279.742 97.6016 280.5 98.9062 281.016 100.438C281.547 101.969 281.812 103.688 281.812 105.594V108.805H261.094V103.859H274.102V103.25C274.117 102.406 273.969 101.688 273.656 101.094C273.359 100.5 272.922 100.047 272.344 99.7344C271.766 99.4219 271.062 99.2656 270.234 99.2656C269.375 99.2656 268.664 99.4531 268.102 99.8281C267.555 100.203 267.125 100.719 266.812 101.375C266.516 102.016 266.305 102.758 266.18 103.602C266.055 104.445 265.992 105.336 265.992 106.273V107.164C265.992 108.102 266.117 108.953 266.367 109.719C266.633 110.484 267.008 111.141 267.492 111.688C267.992 112.219 268.586 112.633 269.273 112.93C269.977 113.227 270.773 113.375 271.664 113.375C272.742 113.375 273.805 113.172 274.852 112.766C275.898 112.359 276.797 111.688 277.547 110.75L281.133 115.016C280.617 115.75 279.883 116.461 278.93 117.148C277.992 117.836 276.867 118.398 275.555 118.836C274.242 119.258 272.773 119.469 271.148 119.469ZM292.781 99.0547V119H284.883V93.6406H292.289L292.781 99.0547ZM291.844 105.453L289.992 105.5C289.992 103.562 290.227 101.836 290.695 100.32C291.164 98.7891 291.828 97.4922 292.688 96.4297C293.547 95.3672 294.57 94.5625 295.758 94.0156C296.961 93.4531 298.297 93.1719 299.766 93.1719C300.938 93.1719 302.008 93.3438 302.977 93.6875C303.961 94.0312 304.805 94.5859 305.508 95.3516C306.227 96.1172 306.773 97.1328 307.148 98.3984C307.539 99.6484 307.734 101.195 307.734 103.039V119H299.789V103.016C299.789 102 299.648 101.227 299.367 100.695C299.086 100.148 298.68 99.7734 298.148 99.5703C297.617 99.3672 296.969 99.2656 296.203 99.2656C295.391 99.2656 294.703 99.4219 294.141 99.7344C293.578 100.047 293.125 100.484 292.781 101.047C292.453 101.594 292.211 102.242 292.055 102.992C291.914 103.742 291.844 104.562 291.844 105.453ZM325.477 93.6406V99.125H310.195V93.6406H325.477ZM313.406 87.3359H321.305V110.727C321.305 111.398 321.383 111.922 321.539 112.297C321.695 112.656 321.961 112.914 322.336 113.07C322.727 113.211 323.242 113.281 323.883 113.281C324.336 113.281 324.711 113.273 325.008 113.258C325.305 113.227 325.586 113.188 325.852 113.141V118.789C325.18 119.008 324.477 119.172 323.742 119.281C323.008 119.406 322.227 119.469 321.398 119.469C319.711 119.469 318.266 119.203 317.062 118.672C315.875 118.141 314.969 117.305 314.344 116.164C313.719 115.023 313.406 113.539 313.406 111.711V87.3359ZM341.789 112.625V102.172C341.789 101.453 341.688 100.836 341.484 100.32C341.281 99.8047 340.961 99.4062 340.523 99.125C340.086 98.8281 339.5 98.6797 338.766 98.6797C338.172 98.6797 337.664 98.7812 337.242 98.9844C336.82 99.1875 336.5 99.4922 336.281 99.8984C336.062 100.305 335.953 100.82 335.953 101.445H328.055C328.055 100.273 328.312 99.1875 328.828 98.1875C329.359 97.1719 330.109 96.2891 331.078 95.5391C332.062 94.7891 333.234 94.2109 334.594 93.8047C335.969 93.3828 337.5 93.1719 339.188 93.1719C341.203 93.1719 343 93.5078 344.578 94.1797C346.172 94.8516 347.43 95.8594 348.352 97.2031C349.273 98.5312 349.734 100.203 349.734 102.219V112.602C349.734 114.258 349.828 115.516 350.016 116.375C350.203 117.219 350.469 117.961 350.812 118.602V119H342.891C342.516 118.219 342.234 117.266 342.047 116.141C341.875 115 341.789 113.828 341.789 112.625ZM342.75 103.508L342.797 107.727H339.305C338.57 107.727 337.945 107.828 337.43 108.031C336.93 108.234 336.523 108.516 336.211 108.875C335.914 109.219 335.695 109.609 335.555 110.047C335.43 110.484 335.367 110.945 335.367 111.43C335.367 111.898 335.477 112.32 335.695 112.695C335.93 113.055 336.242 113.336 336.633 113.539C337.023 113.742 337.461 113.844 337.945 113.844C338.82 113.844 339.562 113.68 340.172 113.352C340.797 113.008 341.273 112.594 341.602 112.109C341.93 111.625 342.094 111.172 342.094 110.75L343.828 113.984C343.516 114.609 343.156 115.242 342.75 115.883C342.359 116.523 341.867 117.117 341.273 117.664C340.695 118.195 339.984 118.633 339.141 118.977C338.297 119.305 337.273 119.469 336.07 119.469C334.508 119.469 333.07 119.148 331.758 118.508C330.461 117.867 329.422 116.977 328.641 115.836C327.859 114.68 327.469 113.352 327.469 111.852C327.469 110.539 327.703 109.367 328.172 108.336C328.656 107.305 329.383 106.43 330.352 105.711C331.32 104.992 332.555 104.445 334.055 104.07C335.555 103.695 337.32 103.508 339.352 103.508H342.75ZM367.477 93.6406V99.125H352.195V93.6406H367.477ZM355.406 87.3359H363.305V110.727C363.305 111.398 363.383 111.922 363.539 112.297C363.695 112.656 363.961 112.914 364.336 113.07C364.727 113.211 365.242 113.281 365.883 113.281C366.336 113.281 366.711 113.273 367.008 113.258C367.305 113.227 367.586 113.188 367.852 113.141V118.789C367.18 119.008 366.477 119.172 365.742 119.281C365.008 119.406 364.227 119.469 363.398 119.469C361.711 119.469 360.266 119.203 359.062 118.672C357.875 118.141 356.969 117.305 356.344 116.164C355.719 115.023 355.406 113.539 355.406 111.711V87.3359ZM378.961 93.6406V119H371.039V93.6406H378.961ZM370.57 87.1016C370.57 85.9766 370.977 85.0547 371.789 84.3359C372.602 83.6172 373.656 83.2578 374.953 83.2578C376.25 83.2578 377.305 83.6172 378.117 84.3359C378.93 85.0547 379.336 85.9766 379.336 87.1016C379.336 88.2266 378.93 89.1484 378.117 89.8672C377.305 90.5859 376.25 90.9453 374.953 90.9453C373.656 90.9453 372.602 90.5859 371.789 89.8672C370.977 89.1484 370.57 88.2266 370.57 87.1016ZM382.852 106.578V106.086C382.852 104.227 383.117 102.516 383.648 100.953C384.18 99.375 384.961 98.0078 385.992 96.8516C387.023 95.6953 388.297 94.7969 389.812 94.1562C391.328 93.5 393.078 93.1719 395.062 93.1719C397.062 93.1719 398.82 93.5 400.336 94.1562C401.867 94.7969 403.148 95.6953 404.18 96.8516C405.211 98.0078 405.992 99.375 406.523 100.953C407.055 102.516 407.32 104.227 407.32 106.086V106.578C407.32 108.422 407.055 110.133 406.523 111.711C405.992 113.273 405.211 114.641 404.18 115.812C403.148 116.969 401.875 117.867 400.359 118.508C398.844 119.148 397.094 119.469 395.109 119.469C393.125 119.469 391.367 119.148 389.836 118.508C388.305 117.867 387.023 116.969 385.992 115.812C384.961 114.641 384.18 113.273 383.648 111.711C383.117 110.133 382.852 108.422 382.852 106.578ZM390.75 106.086V106.578C390.75 107.531 390.82 108.422 390.961 109.25C391.102 110.078 391.336 110.805 391.664 111.43C391.992 112.039 392.438 112.516 393 112.859C393.562 113.203 394.266 113.375 395.109 113.375C395.938 113.375 396.625 113.203 397.172 112.859C397.734 112.516 398.18 112.039 398.508 111.43C398.836 110.805 399.07 110.078 399.211 109.25C399.352 108.422 399.422 107.531 399.422 106.578V106.086C399.422 105.164 399.352 104.297 399.211 103.484C399.07 102.656 398.836 101.93 398.508 101.305C398.18 100.664 397.734 100.164 397.172 99.8047C396.609 99.4453 395.906 99.2656 395.062 99.2656C394.234 99.2656 393.539 99.4453 392.977 99.8047C392.43 100.164 391.992 100.664 391.664 101.305C391.336 101.93 391.102 102.656 390.961 103.484C390.82 104.297 390.75 105.164 390.75 106.086ZM418.594 99.0547V119H410.695V93.6406H418.102L418.594 99.0547ZM417.656 105.453L415.805 105.5C415.805 103.562 416.039 101.836 416.508 100.32C416.977 98.7891 417.641 97.4922 418.5 96.4297C419.359 95.3672 420.383 94.5625 421.57 94.0156C422.773 93.4531 424.109 93.1719 425.578 93.1719C426.75 93.1719 427.82 93.3438 428.789 93.6875C429.773 94.0312 430.617 94.5859 431.32 95.3516C432.039 96.1172 432.586 97.1328 432.961 98.3984C433.352 99.6484 433.547 101.195 433.547 103.039V119H425.602V103.016C425.602 102 425.461 101.227 425.18 100.695C424.898 100.148 424.492 99.7734 423.961 99.5703C423.43 99.3672 422.781 99.2656 422.016 99.2656C421.203 99.2656 420.516 99.4219 419.953 99.7344C419.391 100.047 418.938 100.484 418.594 101.047C418.266 101.594 418.023 102.242 417.867 102.992C417.727 103.742 417.656 104.562 417.656 105.453Z" fill="black"/>
<path d="M1134 0H1348C1356.28 0 1363 6.71573 1363 15V148C1363 156.284 1356.28 163 1348 163H1134V0Z" fill="#1261A9"/>
<path d="M1281 46.5H1216L1213.5 49V114L1216 116.5H1281L1283.5 114V49L1281 46.5ZM1278.5 111.5H1233.5V101.5H1245C1246.5 104.5 1250 106.5 1253.5 106.5C1259 106.5 1263.5 102 1263.5 96.5C1263.5 91 1259 86.5 1253.5 86.5C1248 86.5 1243.5 91 1243.5 96.5H1228.5V111.5H1218.5V51.5H1228.5V63C1225.5 64.5 1223.5 68 1223.5 71.5C1223.5 77 1228 81.5 1233.5 81.5C1239 81.5 1243.5 77 1243.5 71.5H1253.5C1253.5 77 1258 81.5 1263.5 81.5C1269 81.5 1273.5 77 1273.5 71.5C1273.5 66 1269 61.5 1263.5 61.5C1260 61.5 1256.5 63.5 1255 66.5H1242C1240.5 63.5 1237 61.5 1233.5 61.5V51.5H1278.5V111.5ZM1248.5 96.5C1248.5 93.5 1250.5 91.5 1253.5 91.5C1256.5 91.5 1258.5 93.5 1258.5 96.5C1258.5 99.5 1256.5 101.5 1253.5 101.5C1250.5 101.5 1248.5 99.5 1248.5 96.5ZM1233.5 66.5C1236.5 66.5 1238.5 68.5 1238.5 71.5C1238.5 74.5 1236.5 76.5 1233.5 76.5C1230.5 76.5 1228.5 74.5 1228.5 71.5C1228.5 68.5 1230.5 66.5 1233.5 66.5ZM1263.5 66.5C1266.5 66.5 1268.5 68.5 1268.5 71.5C1268.5 74.5 1266.5 76.5 1263.5 76.5C1260.5 76.5 1258.5 74.5 1258.5 71.5C1258.5 68.5 1260.5 66.5 1263.5 66.5Z" fill="white"/>
</svg>
