<svg width="1363" height="163" viewBox="0 0 1363 163" fill="none" xmlns="http://www.w3.org/2000/svg">
<path d="M0 15C0 6.71573 6.71573 0 15 0H37V163H15C6.71573 163 0 156.284 0 148V15Z" fill="#FFD700"/>
<rect width="1097" height="163" transform="translate(37)" fill="#F0F0F0"/>
<path d="M101.906 53.9219L94.3945 51.2383V48.0859L104.602 52.375V54.6367L101.906 53.9219ZM94.3945 56.1719L101.918 53.4297L104.602 52.7852V55.0352L94.3945 59.3242V56.1719ZM116.637 43.9375V61H113.133V43.9375H116.637ZM123.023 51.0273V61H119.648V48.3203H122.812L123.023 51.0273ZM122.531 54.2148H121.617C121.617 53.2773 121.738 52.4336 121.98 51.6836C122.223 50.9258 122.562 50.2812 123 49.75C123.438 49.2109 123.957 48.8008 124.559 48.5195C125.168 48.2305 125.848 48.0859 126.598 48.0859C127.191 48.0859 127.734 48.1719 128.227 48.3438C128.719 48.5156 129.141 48.7891 129.492 49.1641C129.852 49.5391 130.125 50.0352 130.312 50.6523C130.508 51.2695 130.605 52.0234 130.605 52.9141V61H127.207V52.9023C127.207 52.3398 127.129 51.9023 126.973 51.5898C126.816 51.2773 126.586 51.0586 126.281 50.9336C125.984 50.8008 125.617 50.7344 125.18 50.7344C124.727 50.7344 124.332 50.8242 123.996 51.0039C123.668 51.1836 123.395 51.4336 123.176 51.7539C122.965 52.0664 122.805 52.4336 122.695 52.8555C122.586 53.2773 122.531 53.7305 122.531 54.2148ZM136.477 51.0273V61H133.102V48.3203H136.266L136.477 51.0273ZM135.984 54.2148H135.07C135.07 53.2773 135.191 52.4336 135.434 51.6836C135.676 50.9258 136.016 50.2812 136.453 49.75C136.891 49.2109 137.41 48.8008 138.012 48.5195C138.621 48.2305 139.301 48.0859 140.051 48.0859C140.645 48.0859 141.188 48.1719 141.68 48.3438C142.172 48.5156 142.594 48.7891 142.945 49.1641C143.305 49.5391 143.578 50.0352 143.766 50.6523C143.961 51.2695 144.059 52.0234 144.059 52.9141V61H140.66V52.9023C140.66 52.3398 140.582 51.9023 140.426 51.5898C140.27 51.2773 140.039 51.0586 139.734 50.9336C139.438 50.8008 139.07 50.7344 138.633 50.7344C138.18 50.7344 137.785 50.8242 137.449 51.0039C137.121 51.1836 136.848 51.4336 136.629 51.7539C136.418 52.0664 136.258 52.4336 136.148 52.8555C136.039 53.2773 135.984 53.7305 135.984 54.2148ZM146.086 54.7891V54.543C146.086 53.6133 146.219 52.7578 146.484 51.9766C146.75 51.1875 147.137 50.5039 147.645 49.9258C148.152 49.3477 148.777 48.8984 149.52 48.5781C150.262 48.25 151.113 48.0859 152.074 48.0859C153.035 48.0859 153.891 48.25 154.641 48.5781C155.391 48.8984 156.02 49.3477 156.527 49.9258C157.043 50.5039 157.434 51.1875 157.699 51.9766C157.965 52.7578 158.098 53.6133 158.098 54.543V54.7891C158.098 55.7109 157.965 56.5664 157.699 57.3555C157.434 58.1367 157.043 58.8203 156.527 59.4062C156.02 59.9844 155.395 60.4336 154.652 60.7539C153.91 61.0742 153.059 61.2344 152.098 61.2344C151.137 61.2344 150.281 61.0742 149.531 60.7539C148.789 60.4336 148.16 59.9844 147.645 59.4062C147.137 58.8203 146.75 58.1367 146.484 57.3555C146.219 56.5664 146.086 55.7109 146.086 54.7891ZM149.461 54.543V54.7891C149.461 55.3203 149.508 55.8164 149.602 56.2773C149.695 56.7383 149.844 57.1445 150.047 57.4961C150.258 57.8398 150.531 58.1094 150.867 58.3047C151.203 58.5 151.613 58.5977 152.098 58.5977C152.566 58.5977 152.969 58.5 153.305 58.3047C153.641 58.1094 153.91 57.8398 154.113 57.4961C154.316 57.1445 154.465 56.7383 154.559 56.2773C154.66 55.8164 154.711 55.3203 154.711 54.7891V54.543C154.711 54.0273 154.66 53.543 154.559 53.0898C154.465 52.6289 154.312 52.2227 154.102 51.8711C153.898 51.5117 153.629 51.2305 153.293 51.0273C152.957 50.8242 152.551 50.7227 152.074 50.7227C151.598 50.7227 151.191 50.8242 150.855 51.0273C150.527 51.2305 150.258 51.5117 150.047 51.8711C149.844 52.2227 149.695 52.6289 149.602 53.0898C149.508 53.543 149.461 54.0273 149.461 54.543ZM164.297 58.5391L167.109 48.3203H170.637L166.359 61H164.227L164.297 58.5391ZM162.363 48.3203L165.188 58.5508L165.246 61H163.102L158.824 48.3203H162.363ZM178.805 58.1406V52.4922C178.805 52.0859 178.738 51.7383 178.605 51.4492C178.473 51.1523 178.266 50.9219 177.984 50.7578C177.711 50.5938 177.355 50.5117 176.918 50.5117C176.543 50.5117 176.219 50.5781 175.945 50.7109C175.672 50.8359 175.461 51.0195 175.312 51.2617C175.164 51.4961 175.09 51.7734 175.09 52.0938H171.715C171.715 51.5547 171.84 51.043 172.09 50.5586C172.34 50.0742 172.703 49.6484 173.18 49.2812C173.656 48.9062 174.223 48.6133 174.879 48.4023C175.543 48.1914 176.285 48.0859 177.105 48.0859C178.09 48.0859 178.965 48.25 179.73 48.5781C180.496 48.9062 181.098 49.3984 181.535 50.0547C181.98 50.7109 182.203 51.5312 182.203 52.5156V57.9414C182.203 58.6367 182.246 59.207 182.332 59.6523C182.418 60.0898 182.543 60.4727 182.707 60.8008V61H179.297C179.133 60.6562 179.008 60.2266 178.922 59.7109C178.844 59.1875 178.805 58.6641 178.805 58.1406ZM179.25 53.2773L179.273 55.1875H177.387C176.941 55.1875 176.555 55.2383 176.227 55.3398C175.898 55.4414 175.629 55.5859 175.418 55.7734C175.207 55.9531 175.051 56.1641 174.949 56.4062C174.855 56.6484 174.809 56.9141 174.809 57.2031C174.809 57.4922 174.875 57.7539 175.008 57.9883C175.141 58.2148 175.332 58.3945 175.582 58.5273C175.832 58.6523 176.125 58.7148 176.461 58.7148C176.969 58.7148 177.41 58.6133 177.785 58.4102C178.16 58.207 178.449 57.957 178.652 57.6602C178.863 57.3633 178.973 57.082 178.98 56.8164L179.871 58.2461C179.746 58.5664 179.574 58.8984 179.355 59.2422C179.145 59.5859 178.875 59.9102 178.547 60.2148C178.219 60.5117 177.824 60.7578 177.363 60.9531C176.902 61.1406 176.355 61.2344 175.723 61.2344C174.918 61.2344 174.188 61.0742 173.531 60.7539C172.883 60.4258 172.367 59.9766 171.984 59.4062C171.609 58.8281 171.422 58.1719 171.422 57.4375C171.422 56.7734 171.547 56.1836 171.797 55.668C172.047 55.1523 172.414 54.7188 172.898 54.3672C173.391 54.0078 174.004 53.7383 174.738 53.5586C175.473 53.3711 176.324 53.2773 177.293 53.2773H179.25ZM191.016 48.3203V50.7109H183.633V48.3203H191.016ZM185.461 45.1914H188.836V57.1797C188.836 57.5469 188.883 57.8281 188.977 58.0234C189.078 58.2188 189.227 58.3555 189.422 58.4336C189.617 58.5039 189.863 58.5391 190.16 58.5391C190.371 58.5391 190.559 58.5312 190.723 58.5156C190.895 58.4922 191.039 58.4688 191.156 58.4453L191.168 60.9297C190.879 61.0234 190.566 61.0977 190.23 61.1523C189.895 61.207 189.523 61.2344 189.117 61.2344C188.375 61.2344 187.727 61.1133 187.172 60.8711C186.625 60.6211 186.203 60.2227 185.906 59.6758C185.609 59.1289 185.461 58.4102 185.461 57.5195V45.1914ZM196.5 48.3203V61H193.113V48.3203H196.5ZM192.902 45.0156C192.902 44.5234 193.074 44.1172 193.418 43.7969C193.762 43.4766 194.223 43.3164 194.801 43.3164C195.371 43.3164 195.828 43.4766 196.172 43.7969C196.523 44.1172 196.699 44.5234 196.699 45.0156C196.699 45.5078 196.523 45.9141 196.172 46.2344C195.828 46.5547 195.371 46.7148 194.801 46.7148C194.223 46.7148 193.762 46.5547 193.418 46.2344C193.074 45.9141 192.902 45.5078 192.902 45.0156ZM203.602 58.5391L206.414 48.3203H209.941L205.664 61H203.531L203.602 58.5391ZM201.668 48.3203L204.492 58.5508L204.551 61H202.406L198.129 48.3203H201.668ZM217.125 61.2344C216.141 61.2344 215.258 61.0781 214.477 60.7656C213.695 60.4453 213.031 60.0039 212.484 59.4414C211.945 58.8789 211.531 58.2266 211.242 57.4844C210.953 56.7344 210.809 55.9375 210.809 55.0938V54.625C210.809 53.6641 210.945 52.7852 211.219 51.9883C211.492 51.1914 211.883 50.5 212.391 49.9141C212.906 49.3281 213.531 48.8789 214.266 48.5664C215 48.2461 215.828 48.0859 216.75 48.0859C217.648 48.0859 218.445 48.2344 219.141 48.5312C219.836 48.8281 220.418 49.25 220.887 49.7969C221.363 50.3438 221.723 51 221.965 51.7656C222.207 52.5234 222.328 53.3672 222.328 54.2969V55.7031H212.25V53.4531H219.012V53.1953C219.012 52.7266 218.926 52.3086 218.754 51.9414C218.59 51.5664 218.34 51.2695 218.004 51.0508C217.668 50.832 217.238 50.7227 216.715 50.7227C216.27 50.7227 215.887 50.8203 215.566 51.0156C215.246 51.2109 214.984 51.4844 214.781 51.8359C214.586 52.1875 214.438 52.6016 214.336 53.0781C214.242 53.5469 214.195 54.0625 214.195 54.625V55.0938C214.195 55.6016 214.266 56.0703 214.406 56.5C214.555 56.9297 214.762 57.3008 215.027 57.6133C215.301 57.9258 215.629 58.168 216.012 58.3398C216.402 58.5117 216.844 58.5977 217.336 58.5977C217.945 58.5977 218.512 58.4805 219.035 58.2461C219.566 58.0039 220.023 57.6406 220.406 57.1562L222.047 58.9375C221.781 59.3203 221.418 59.6875 220.957 60.0391C220.504 60.3906 219.957 60.6797 219.316 60.9062C218.676 61.125 217.945 61.2344 217.125 61.2344ZM226.066 43.9375H229.043L233.426 56.4648L237.809 43.9375H240.785L234.621 61H232.23L226.066 43.9375ZM224.461 43.9375H227.426L227.965 56.1484V61H224.461V43.9375ZM239.426 43.9375H242.402V61H238.887V56.1484L239.426 43.9375ZM256.453 58.2578V61H247.863V58.2578H256.453ZM249 43.9375V61H245.484V43.9375H249Z" fill="#888888"/>
<path d="M109.219 107.422H100.734V101.07H109.219C110.375 101.07 111.312 100.875 112.031 100.484C112.75 100.094 113.273 99.5547 113.602 98.8672C113.945 98.1641 114.117 97.375 114.117 96.5C114.117 95.5625 113.945 94.6953 113.602 93.8984C113.273 93.1016 112.75 92.4609 112.031 91.9766C111.312 91.4766 110.375 91.2266 109.219 91.2266H103.828V119H95.6016V84.875H109.219C111.953 84.875 114.305 85.375 116.273 86.375C118.258 87.375 119.781 88.75 120.844 90.5C121.906 92.2344 122.438 94.2188 122.438 96.4531C122.438 98.6562 121.906 100.578 120.844 102.219C119.781 103.859 118.258 105.141 116.273 106.062C114.305 106.969 111.953 107.422 109.219 107.422ZM134.461 99.9219V119H126.562V93.6406H133.945L134.461 99.9219ZM141.961 93.4531L141.82 100.789C141.508 100.758 141.086 100.719 140.555 100.672C140.023 100.625 139.578 100.602 139.219 100.602C138.297 100.602 137.5 100.711 136.828 100.93C136.172 101.133 135.625 101.445 135.188 101.867C134.766 102.273 134.453 102.789 134.25 103.414C134.062 104.039 133.977 104.766 133.992 105.594L132.562 104.656C132.562 102.953 132.727 101.406 133.055 100.016C133.398 98.6094 133.883 97.3984 134.508 96.3828C135.133 95.3516 135.891 94.5625 136.781 94.0156C137.672 93.4531 138.672 93.1719 139.781 93.1719C140.172 93.1719 140.555 93.1953 140.93 93.2422C141.32 93.2891 141.664 93.3594 141.961 93.4531ZM142.852 106.578V106.086C142.852 104.227 143.117 102.516 143.648 100.953C144.18 99.375 144.961 98.0078 145.992 96.8516C147.023 95.6953 148.297 94.7969 149.812 94.1562C151.328 93.5 153.078 93.1719 155.062 93.1719C157.062 93.1719 158.82 93.5 160.336 94.1562C161.867 94.7969 163.148 95.6953 164.18 96.8516C165.211 98.0078 165.992 99.375 166.523 100.953C167.055 102.516 167.32 104.227 167.32 106.086V106.578C167.32 108.422 167.055 110.133 166.523 111.711C165.992 113.273 165.211 114.641 164.18 115.812C163.148 116.969 161.875 117.867 160.359 118.508C158.844 119.148 157.094 119.469 155.109 119.469C153.125 119.469 151.367 119.148 149.836 118.508C148.305 117.867 147.023 116.969 145.992 115.812C144.961 114.641 144.18 113.273 143.648 111.711C143.117 110.133 142.852 108.422 142.852 106.578ZM150.75 106.086V106.578C150.75 107.531 150.82 108.422 150.961 109.25C151.102 110.078 151.336 110.805 151.664 111.43C151.992 112.039 152.438 112.516 153 112.859C153.562 113.203 154.266 113.375 155.109 113.375C155.938 113.375 156.625 113.203 157.172 112.859C157.734 112.516 158.18 112.039 158.508 111.43C158.836 110.805 159.07 110.078 159.211 109.25C159.352 108.422 159.422 107.531 159.422 106.578V106.086C159.422 105.164 159.352 104.297 159.211 103.484C159.07 102.656 158.836 101.93 158.508 101.305C158.18 100.664 157.734 100.164 157.172 99.8047C156.609 99.4453 155.906 99.2656 155.062 99.2656C154.234 99.2656 153.539 99.4453 152.977 99.8047C152.43 100.164 151.992 100.664 151.664 101.305C151.336 101.93 151.102 102.656 150.961 103.484C150.82 104.297 150.75 105.164 150.75 106.086ZM184.195 93.6406V99.125H168.914V93.6406H184.195ZM172.125 87.3359H180.023V110.727C180.023 111.398 180.102 111.922 180.258 112.297C180.414 112.656 180.68 112.914 181.055 113.07C181.445 113.211 181.961 113.281 182.602 113.281C183.055 113.281 183.43 113.273 183.727 113.258C184.023 113.227 184.305 113.188 184.57 113.141V118.789C183.898 119.008 183.195 119.172 182.461 119.281C181.727 119.406 180.945 119.469 180.117 119.469C178.43 119.469 176.984 119.203 175.781 118.672C174.594 118.141 173.688 117.305 173.062 116.164C172.438 115.023 172.125 113.539 172.125 111.711V87.3359ZM185.648 106.578V106.086C185.648 104.227 185.914 102.516 186.445 100.953C186.977 99.375 187.758 98.0078 188.789 96.8516C189.82 95.6953 191.094 94.7969 192.609 94.1562C194.125 93.5 195.875 93.1719 197.859 93.1719C199.859 93.1719 201.617 93.5 203.133 94.1562C204.664 94.7969 205.945 95.6953 206.977 96.8516C208.008 98.0078 208.789 99.375 209.32 100.953C209.852 102.516 210.117 104.227 210.117 106.086V106.578C210.117 108.422 209.852 110.133 209.32 111.711C208.789 113.273 208.008 114.641 206.977 115.812C205.945 116.969 204.672 117.867 203.156 118.508C201.641 119.148 199.891 119.469 197.906 119.469C195.922 119.469 194.164 119.148 192.633 118.508C191.102 117.867 189.82 116.969 188.789 115.812C187.758 114.641 186.977 113.273 186.445 111.711C185.914 110.133 185.648 108.422 185.648 106.578ZM193.547 106.086V106.578C193.547 107.531 193.617 108.422 193.758 109.25C193.898 110.078 194.133 110.805 194.461 111.43C194.789 112.039 195.234 112.516 195.797 112.859C196.359 113.203 197.062 113.375 197.906 113.375C198.734 113.375 199.422 113.203 199.969 112.859C200.531 112.516 200.977 112.039 201.305 111.43C201.633 110.805 201.867 110.078 202.008 109.25C202.148 108.422 202.219 107.531 202.219 106.578V106.086C202.219 105.164 202.148 104.297 202.008 103.484C201.867 102.656 201.633 101.93 201.305 101.305C200.977 100.664 200.531 100.164 199.969 99.8047C199.406 99.4453 198.703 99.2656 197.859 99.2656C197.031 99.2656 196.336 99.4453 195.773 99.8047C195.227 100.164 194.789 100.664 194.461 101.305C194.133 101.93 193.898 102.656 193.758 103.484C193.617 104.297 193.547 105.164 193.547 106.086ZM226.992 93.6406V99.125H211.711V93.6406H226.992ZM214.922 87.3359H222.82V110.727C222.82 111.398 222.898 111.922 223.055 112.297C223.211 112.656 223.477 112.914 223.852 113.07C224.242 113.211 224.758 113.281 225.398 113.281C225.852 113.281 226.227 113.273 226.523 113.258C226.82 113.227 227.102 113.188 227.367 113.141V118.789C226.695 119.008 225.992 119.172 225.258 119.281C224.523 119.406 223.742 119.469 222.914 119.469C221.227 119.469 219.781 119.203 218.578 118.672C217.391 118.141 216.484 117.305 215.859 116.164C215.234 115.023 214.922 113.539 214.922 111.711V87.3359ZM237.914 116.023L244.477 93.6406H252.961L242.766 122.773C242.547 123.414 242.258 124.102 241.898 124.836C241.539 125.586 241.047 126.297 240.422 126.969C239.797 127.641 238.992 128.188 238.008 128.609C237.039 129.031 235.836 129.242 234.398 129.242C233.633 129.242 233.07 129.203 232.711 129.125C232.367 129.062 231.836 128.945 231.117 128.773V123.125C231.32 123.125 231.492 123.125 231.633 123.125C231.789 123.125 231.961 123.125 232.148 123.125C232.992 123.125 233.664 123.039 234.164 122.867C234.68 122.695 235.07 122.445 235.336 122.117C235.617 121.789 235.836 121.391 235.992 120.922L237.914 116.023ZM236.25 93.6406L241.242 111.383L242.109 119.75H236.812L227.789 93.6406H236.25ZM262.992 98.5156V128.75H255.094V93.6406H262.453L262.992 98.5156ZM278.555 106.016V106.508C278.555 108.352 278.344 110.062 277.922 111.641C277.5 113.219 276.875 114.594 276.047 115.766C275.219 116.938 274.188 117.852 272.953 118.508C271.734 119.148 270.32 119.469 268.711 119.469C267.195 119.469 265.891 119.133 264.797 118.461C263.703 117.789 262.789 116.859 262.055 115.672C261.32 114.484 260.727 113.125 260.273 111.594C259.82 110.062 259.461 108.445 259.195 106.742V106.109C259.461 104.281 259.82 102.586 260.273 101.023C260.727 99.4453 261.32 98.0703 262.055 96.8984C262.789 95.7266 263.695 94.8125 264.773 94.1562C265.867 93.5 267.172 93.1719 268.688 93.1719C270.297 93.1719 271.711 93.4766 272.93 94.0859C274.164 94.6953 275.195 95.5703 276.023 96.7109C276.867 97.8359 277.5 99.1875 277.922 100.766C278.344 102.344 278.555 104.094 278.555 106.016ZM270.656 106.508V106.016C270.656 105.031 270.586 104.133 270.445 103.32C270.305 102.492 270.078 101.773 269.766 101.164C269.469 100.555 269.07 100.086 268.57 99.7578C268.07 99.4297 267.453 99.2656 266.719 99.2656C265.875 99.2656 265.164 99.3984 264.586 99.6641C264.023 99.9141 263.57 100.305 263.227 100.836C262.898 101.352 262.664 102 262.523 102.781C262.398 103.547 262.344 104.445 262.359 105.477V107.398C262.328 108.586 262.445 109.633 262.711 110.539C262.977 111.43 263.438 112.125 264.094 112.625C264.75 113.125 265.641 113.375 266.766 113.375C267.516 113.375 268.141 113.203 268.641 112.859C269.141 112.5 269.539 112.008 269.836 111.383C270.133 110.742 270.344 110.008 270.469 109.18C270.594 108.352 270.656 107.461 270.656 106.508ZM290.414 93.6406V119H282.492V93.6406H290.414ZM282.023 87.1016C282.023 85.9766 282.43 85.0547 283.242 84.3359C284.055 83.6172 285.109 83.2578 286.406 83.2578C287.703 83.2578 288.758 83.6172 289.57 84.3359C290.383 85.0547 290.789 85.9766 290.789 87.1016C290.789 88.2266 290.383 89.1484 289.57 89.8672C288.758 90.5859 287.703 90.9453 286.406 90.9453C285.109 90.9453 284.055 90.5859 283.242 89.8672C282.43 89.1484 282.023 88.2266 282.023 87.1016ZM303.047 99.0547V119H295.148V93.6406H302.555L303.047 99.0547ZM302.109 105.453L300.258 105.5C300.258 103.562 300.492 101.836 300.961 100.32C301.43 98.7891 302.094 97.4922 302.953 96.4297C303.812 95.3672 304.836 94.5625 306.023 94.0156C307.227 93.4531 308.562 93.1719 310.031 93.1719C311.203 93.1719 312.273 93.3438 313.242 93.6875C314.227 94.0312 315.07 94.5859 315.773 95.3516C316.492 96.1172 317.039 97.1328 317.414 98.3984C317.805 99.6484 318 101.195 318 103.039V119H310.055V103.016C310.055 102 309.914 101.227 309.633 100.695C309.352 100.148 308.945 99.7734 308.414 99.5703C307.883 99.3672 307.234 99.2656 306.469 99.2656C305.656 99.2656 304.969 99.4219 304.406 99.7344C303.844 100.047 303.391 100.484 303.047 101.047C302.719 101.594 302.477 102.242 302.32 102.992C302.18 103.742 302.109 104.562 302.109 105.453ZM338.32 93.6406H345.492V118.016C345.492 120.359 344.953 122.344 343.875 123.969C342.797 125.609 341.289 126.852 339.352 127.695C337.43 128.555 335.18 128.984 332.602 128.984C331.461 128.984 330.297 128.836 329.109 128.539C327.922 128.258 326.812 127.836 325.781 127.273C324.75 126.711 323.883 126.016 323.18 125.188L326.484 120.547C327.125 121.266 327.93 121.875 328.898 122.375C329.867 122.891 331.008 123.148 332.32 123.148C333.461 123.148 334.414 122.945 335.18 122.539C335.961 122.133 336.555 121.539 336.961 120.758C337.367 119.992 337.57 119.062 337.57 117.969V99.6406L338.32 93.6406ZM321.469 106.625V106.133C321.469 104.211 321.703 102.461 322.172 100.883C322.656 99.2891 323.344 97.9219 324.234 96.7812C325.141 95.625 326.234 94.7344 327.516 94.1094C328.797 93.4844 330.242 93.1719 331.852 93.1719C333.586 93.1719 335.008 93.5078 336.117 94.1797C337.242 94.8359 338.141 95.7578 338.812 96.9453C339.5 98.1328 340.031 99.5234 340.406 101.117C340.797 102.695 341.125 104.398 341.391 106.227V106.812C341.125 108.531 340.758 110.156 340.289 111.688C339.836 113.203 339.242 114.547 338.508 115.719C337.773 116.891 336.852 117.812 335.742 118.484C334.648 119.141 333.336 119.469 331.805 119.469C330.211 119.469 328.773 119.148 327.492 118.508C326.227 117.867 325.141 116.969 324.234 115.812C323.344 114.656 322.656 113.297 322.172 111.734C321.703 110.172 321.469 108.469 321.469 106.625ZM329.367 106.133V106.625C329.367 107.578 329.453 108.461 329.625 109.273C329.812 110.086 330.094 110.805 330.469 111.43C330.844 112.039 331.305 112.516 331.852 112.859C332.414 113.203 333.07 113.375 333.82 113.375C334.961 113.375 335.883 113.133 336.586 112.648C337.289 112.164 337.797 111.477 338.109 110.586C338.422 109.695 338.555 108.648 338.508 107.445V105.594C338.539 104.562 338.469 103.656 338.297 102.875C338.125 102.078 337.852 101.414 337.477 100.883C337.117 100.352 336.633 99.9531 336.023 99.6875C335.43 99.4062 334.711 99.2656 333.867 99.2656C333.133 99.2656 332.484 99.4375 331.922 99.7812C331.359 100.125 330.891 100.609 330.516 101.234C330.141 101.844 329.852 102.57 329.648 103.414C329.461 104.242 329.367 105.148 329.367 106.133Z" fill="black"/>
<path d="M1134 0H1348C1356.28 0 1363 6.71573 1363 15V148C1363 156.284 1356.28 163 1348 163H1134V0Z" fill="#1261A9"/>
<path fill-rule="evenodd" clip-rule="evenodd" d="M1202.75 46.5018C1202.75 45.3973 1203.65 44.5018 1204.75 44.5018H1292.25C1293.35 44.5018 1294.25 45.3973 1294.25 46.5018V116.498C1294.25 117.603 1293.35 118.498 1292.25 118.498H1204.75C1203.65 118.498 1202.75 117.603 1202.75 116.498V46.5018ZM1206.75 48.5018V52.9963H1290.25V48.5018H1206.75ZM1290.25 56.9963H1235.19V114.498H1290.25V56.9963ZM1231.19 114.498V56.9963H1206.75V114.498H1231.19Z" fill="white"/>
<path fill-rule="evenodd" clip-rule="evenodd" d="M1209.72 62.3022C1209.72 61.1976 1210.62 60.3022 1211.72 60.3022H1225.72C1226.83 60.3022 1227.72 61.1976 1227.72 62.3022V81.6974C1227.72 82.802 1226.83 83.6974 1225.72 83.6974H1211.72C1210.62 83.6974 1209.72 82.802 1209.72 81.6974V62.3022ZM1213.72 64.3022V79.6974H1223.72V64.3022H1213.72ZM1239.33 63.1982C1239.33 62.0936 1240.22 61.1982 1241.33 61.1982H1284.25C1285.36 61.1982 1286.25 62.0936 1286.25 63.1982V109.407C1286.25 110.511 1285.36 111.407 1284.25 111.407H1241.33C1240.22 111.407 1239.33 110.511 1239.33 109.407V63.1982ZM1243.33 65.1982V107.407H1282.25V65.1982H1243.33ZM1209.56 93.4381C1209.56 92.3336 1210.46 91.4381 1211.56 91.4381H1220.48C1221.59 91.4381 1222.48 92.3336 1222.48 93.4381C1222.48 94.5427 1221.59 95.4381 1220.48 95.4381H1211.56C1210.46 95.4381 1209.56 94.5427 1209.56 93.4381ZM1209.56 100.438C1209.56 99.3335 1210.46 98.4381 1211.56 98.4381H1226.1C1227.21 98.4381 1228.1 99.3335 1228.1 100.438C1228.1 101.543 1227.21 102.438 1226.1 102.438H1211.56C1210.46 102.438 1209.56 101.543 1209.56 100.438ZM1209.56 107.438C1209.56 106.334 1210.46 105.438 1211.56 105.438H1220.48C1221.59 105.438 1222.48 106.334 1222.48 107.438C1222.48 108.543 1221.59 109.438 1220.48 109.438H1211.56C1210.46 109.438 1209.56 108.543 1209.56 107.438Z" fill="white"/>
</svg>
