<svg width="1097" height="163" viewBox="0 0 1097 163" fill="none" xmlns="http://www.w3.org/2000/svg">
<rect width="1097" height="163" fill="#F0F0F0"/>
<path d="M64.9062 53.9219L57.3945 51.2383V48.0859L67.6016 52.375V54.6367L64.9062 53.9219ZM57.3945 56.1719L64.918 53.4297L67.6016 52.7852V55.0352L57.3945 59.3242V56.1719ZM79.6367 43.9375V61H76.1328V43.9375H79.6367ZM86.0234 51.0273V61H82.6484V48.3203H85.8125L86.0234 51.0273ZM85.5312 54.2148H84.6172C84.6172 53.2773 84.7383 52.4336 84.9805 51.6836C85.2227 50.9258 85.5625 50.2812 86 49.75C86.4375 49.2109 86.957 48.8008 87.5586 48.5195C88.168 48.2305 88.8477 48.0859 89.5977 48.0859C90.1914 48.0859 90.7344 48.1719 91.2266 48.3438C91.7188 48.5156 92.1406 48.7891 92.4922 49.1641C92.8516 49.5391 93.125 50.0352 93.3125 50.6523C93.5078 51.2695 93.6055 52.0234 93.6055 52.9141V61H90.207V52.9023C90.207 52.3398 90.1289 51.9023 89.9727 51.5898C89.8164 51.2773 89.5859 51.0586 89.2812 50.9336C88.9844 50.8008 88.6172 50.7344 88.1797 50.7344C87.7266 50.7344 87.332 50.8242 86.9961 51.0039C86.668 51.1836 86.3945 51.4336 86.1758 51.7539C85.9648 52.0664 85.8047 52.4336 85.6953 52.8555C85.5859 53.2773 85.5312 53.7305 85.5312 54.2148ZM99.4766 51.0273V61H96.1016V48.3203H99.2656L99.4766 51.0273ZM98.9844 54.2148H98.0703C98.0703 53.2773 98.1914 52.4336 98.4336 51.6836C98.6758 50.9258 99.0156 50.2812 99.4531 49.75C99.8906 49.2109 100.41 48.8008 101.012 48.5195C101.621 48.2305 102.301 48.0859 103.051 48.0859C103.645 48.0859 104.188 48.1719 104.68 48.3438C105.172 48.5156 105.594 48.7891 105.945 49.1641C106.305 49.5391 106.578 50.0352 106.766 50.6523C106.961 51.2695 107.059 52.0234 107.059 52.9141V61H103.66V52.9023C103.66 52.3398 103.582 51.9023 103.426 51.5898C103.27 51.2773 103.039 51.0586 102.734 50.9336C102.438 50.8008 102.07 50.7344 101.633 50.7344C101.18 50.7344 100.785 50.8242 100.449 51.0039C100.121 51.1836 99.8477 51.4336 99.6289 51.7539C99.418 52.0664 99.2578 52.4336 99.1484 52.8555C99.0391 53.2773 98.9844 53.7305 98.9844 54.2148ZM109.086 54.7891V54.543C109.086 53.6133 109.219 52.7578 109.484 51.9766C109.75 51.1875 110.137 50.5039 110.645 49.9258C111.152 49.3477 111.777 48.8984 112.52 48.5781C113.262 48.25 114.113 48.0859 115.074 48.0859C116.035 48.0859 116.891 48.25 117.641 48.5781C118.391 48.8984 119.02 49.3477 119.527 49.9258C120.043 50.5039 120.434 51.1875 120.699 51.9766C120.965 52.7578 121.098 53.6133 121.098 54.543V54.7891C121.098 55.7109 120.965 56.5664 120.699 57.3555C120.434 58.1367 120.043 58.8203 119.527 59.4062C119.02 59.9844 118.395 60.4336 117.652 60.7539C116.91 61.0742 116.059 61.2344 115.098 61.2344C114.137 61.2344 113.281 61.0742 112.531 60.7539C111.789 60.4336 111.16 59.9844 110.645 59.4062C110.137 58.8203 109.75 58.1367 109.484 57.3555C109.219 56.5664 109.086 55.7109 109.086 54.7891ZM112.461 54.543V54.7891C112.461 55.3203 112.508 55.8164 112.602 56.2773C112.695 56.7383 112.844 57.1445 113.047 57.4961C113.258 57.8398 113.531 58.1094 113.867 58.3047C114.203 58.5 114.613 58.5977 115.098 58.5977C115.566 58.5977 115.969 58.5 116.305 58.3047C116.641 58.1094 116.91 57.8398 117.113 57.4961C117.316 57.1445 117.465 56.7383 117.559 56.2773C117.66 55.8164 117.711 55.3203 117.711 54.7891V54.543C117.711 54.0273 117.66 53.543 117.559 53.0898C117.465 52.6289 117.312 52.2227 117.102 51.8711C116.898 51.5117 116.629 51.2305 116.293 51.0273C115.957 50.8242 115.551 50.7227 115.074 50.7227C114.598 50.7227 114.191 50.8242 113.855 51.0273C113.527 51.2305 113.258 51.5117 113.047 51.8711C112.844 52.2227 112.695 52.6289 112.602 53.0898C112.508 53.543 112.461 54.0273 112.461 54.543ZM127.297 58.5391L130.109 48.3203H133.637L129.359 61H127.227L127.297 58.5391ZM125.363 48.3203L128.188 58.5508L128.246 61H126.102L121.824 48.3203H125.363ZM141.805 58.1406V52.4922C141.805 52.0859 141.738 51.7383 141.605 51.4492C141.473 51.1523 141.266 50.9219 140.984 50.7578C140.711 50.5938 140.355 50.5117 139.918 50.5117C139.543 50.5117 139.219 50.5781 138.945 50.7109C138.672 50.8359 138.461 51.0195 138.312 51.2617C138.164 51.4961 138.09 51.7734 138.09 52.0938H134.715C134.715 51.5547 134.84 51.043 135.09 50.5586C135.34 50.0742 135.703 49.6484 136.18 49.2812C136.656 48.9062 137.223 48.6133 137.879 48.4023C138.543 48.1914 139.285 48.0859 140.105 48.0859C141.09 48.0859 141.965 48.25 142.73 48.5781C143.496 48.9062 144.098 49.3984 144.535 50.0547C144.98 50.7109 145.203 51.5312 145.203 52.5156V57.9414C145.203 58.6367 145.246 59.207 145.332 59.6523C145.418 60.0898 145.543 60.4727 145.707 60.8008V61H142.297C142.133 60.6562 142.008 60.2266 141.922 59.7109C141.844 59.1875 141.805 58.6641 141.805 58.1406ZM142.25 53.2773L142.273 55.1875H140.387C139.941 55.1875 139.555 55.2383 139.227 55.3398C138.898 55.4414 138.629 55.5859 138.418 55.7734C138.207 55.9531 138.051 56.1641 137.949 56.4062C137.855 56.6484 137.809 56.9141 137.809 57.2031C137.809 57.4922 137.875 57.7539 138.008 57.9883C138.141 58.2148 138.332 58.3945 138.582 58.5273C138.832 58.6523 139.125 58.7148 139.461 58.7148C139.969 58.7148 140.41 58.6133 140.785 58.4102C141.16 58.207 141.449 57.957 141.652 57.6602C141.863 57.3633 141.973 57.082 141.98 56.8164L142.871 58.2461C142.746 58.5664 142.574 58.8984 142.355 59.2422C142.145 59.5859 141.875 59.9102 141.547 60.2148C141.219 60.5117 140.824 60.7578 140.363 60.9531C139.902 61.1406 139.355 61.2344 138.723 61.2344C137.918 61.2344 137.188 61.0742 136.531 60.7539C135.883 60.4258 135.367 59.9766 134.984 59.4062C134.609 58.8281 134.422 58.1719 134.422 57.4375C134.422 56.7734 134.547 56.1836 134.797 55.668C135.047 55.1523 135.414 54.7188 135.898 54.3672C136.391 54.0078 137.004 53.7383 137.738 53.5586C138.473 53.3711 139.324 53.2773 140.293 53.2773H142.25ZM154.016 48.3203V50.7109H146.633V48.3203H154.016ZM148.461 45.1914H151.836V57.1797C151.836 57.5469 151.883 57.8281 151.977 58.0234C152.078 58.2188 152.227 58.3555 152.422 58.4336C152.617 58.5039 152.863 58.5391 153.16 58.5391C153.371 58.5391 153.559 58.5312 153.723 58.5156C153.895 58.4922 154.039 58.4688 154.156 58.4453L154.168 60.9297C153.879 61.0234 153.566 61.0977 153.23 61.1523C152.895 61.207 152.523 61.2344 152.117 61.2344C151.375 61.2344 150.727 61.1133 150.172 60.8711C149.625 60.6211 149.203 60.2227 148.906 59.6758C148.609 59.1289 148.461 58.4102 148.461 57.5195V45.1914ZM159.5 48.3203V61H156.113V48.3203H159.5ZM155.902 45.0156C155.902 44.5234 156.074 44.1172 156.418 43.7969C156.762 43.4766 157.223 43.3164 157.801 43.3164C158.371 43.3164 158.828 43.4766 159.172 43.7969C159.523 44.1172 159.699 44.5234 159.699 45.0156C159.699 45.5078 159.523 45.9141 159.172 46.2344C158.828 46.5547 158.371 46.7148 157.801 46.7148C157.223 46.7148 156.762 46.5547 156.418 46.2344C156.074 45.9141 155.902 45.5078 155.902 45.0156ZM166.602 58.5391L169.414 48.3203H172.941L168.664 61H166.531L166.602 58.5391ZM164.668 48.3203L167.492 58.5508L167.551 61H165.406L161.129 48.3203H164.668ZM180.125 61.2344C179.141 61.2344 178.258 61.0781 177.477 60.7656C176.695 60.4453 176.031 60.0039 175.484 59.4414C174.945 58.8789 174.531 58.2266 174.242 57.4844C173.953 56.7344 173.809 55.9375 173.809 55.0938V54.625C173.809 53.6641 173.945 52.7852 174.219 51.9883C174.492 51.1914 174.883 50.5 175.391 49.9141C175.906 49.3281 176.531 48.8789 177.266 48.5664C178 48.2461 178.828 48.0859 179.75 48.0859C180.648 48.0859 181.445 48.2344 182.141 48.5312C182.836 48.8281 183.418 49.25 183.887 49.7969C184.363 50.3438 184.723 51 184.965 51.7656C185.207 52.5234 185.328 53.3672 185.328 54.2969V55.7031H175.25V53.4531H182.012V53.1953C182.012 52.7266 181.926 52.3086 181.754 51.9414C181.59 51.5664 181.34 51.2695 181.004 51.0508C180.668 50.832 180.238 50.7227 179.715 50.7227C179.27 50.7227 178.887 50.8203 178.566 51.0156C178.246 51.2109 177.984 51.4844 177.781 51.8359C177.586 52.1875 177.438 52.6016 177.336 53.0781C177.242 53.5469 177.195 54.0625 177.195 54.625V55.0938C177.195 55.6016 177.266 56.0703 177.406 56.5C177.555 56.9297 177.762 57.3008 178.027 57.6133C178.301 57.9258 178.629 58.168 179.012 58.3398C179.402 58.5117 179.844 58.5977 180.336 58.5977C180.945 58.5977 181.512 58.4805 182.035 58.2461C182.566 58.0039 183.023 57.6406 183.406 57.1562L185.047 58.9375C184.781 59.3203 184.418 59.6875 183.957 60.0391C183.504 60.3906 182.957 60.6797 182.316 60.9062C181.676 61.125 180.945 61.2344 180.125 61.2344ZM189.066 43.9375H192.043L196.426 56.4648L200.809 43.9375H203.785L197.621 61H195.23L189.066 43.9375ZM187.461 43.9375H190.426L190.965 56.1484V61H187.461V43.9375ZM202.426 43.9375H205.402V61H201.887V56.1484L202.426 43.9375ZM219.453 58.2578V61H210.863V58.2578H219.453ZM212 43.9375V61H208.484V43.9375H212Z" fill="#888888"/>
<path d="M72.2188 107.422H63.7344V101.07H72.2188C73.375 101.07 74.3125 100.875 75.0312 100.484C75.75 100.094 76.2734 99.5547 76.6016 98.8672C76.9453 98.1641 77.1172 97.375 77.1172 96.5C77.1172 95.5625 76.9453 94.6953 76.6016 93.8984C76.2734 93.1016 75.75 92.4609 75.0312 91.9766C74.3125 91.4766 73.375 91.2266 72.2188 91.2266H66.8281V119H58.6016V84.875H72.2188C74.9531 84.875 77.3047 85.375 79.2734 86.375C81.2578 87.375 82.7812 88.75 83.8438 90.5C84.9062 92.2344 85.4375 94.2188 85.4375 96.4531C85.4375 98.6562 84.9062 100.578 83.8438 102.219C82.7812 103.859 81.2578 105.141 79.2734 106.062C77.3047 106.969 74.9531 107.422 72.2188 107.422ZM97.4609 99.9219V119H89.5625V93.6406H96.9453L97.4609 99.9219ZM104.961 93.4531L104.82 100.789C104.508 100.758 104.086 100.719 103.555 100.672C103.023 100.625 102.578 100.602 102.219 100.602C101.297 100.602 100.5 100.711 99.8281 100.93C99.1719 101.133 98.625 101.445 98.1875 101.867C97.7656 102.273 97.4531 102.789 97.25 103.414C97.0625 104.039 96.9766 104.766 96.9922 105.594L95.5625 104.656C95.5625 102.953 95.7266 101.406 96.0547 100.016C96.3984 98.6094 96.8828 97.3984 97.5078 96.3828C98.1328 95.3516 98.8906 94.5625 99.7812 94.0156C100.672 93.4531 101.672 93.1719 102.781 93.1719C103.172 93.1719 103.555 93.1953 103.93 93.2422C104.32 93.2891 104.664 93.3594 104.961 93.4531ZM105.852 106.578V106.086C105.852 104.227 106.117 102.516 106.648 100.953C107.18 99.375 107.961 98.0078 108.992 96.8516C110.023 95.6953 111.297 94.7969 112.812 94.1562C114.328 93.5 116.078 93.1719 118.062 93.1719C120.062 93.1719 121.82 93.5 123.336 94.1562C124.867 94.7969 126.148 95.6953 127.18 96.8516C128.211 98.0078 128.992 99.375 129.523 100.953C130.055 102.516 130.32 104.227 130.32 106.086V106.578C130.32 108.422 130.055 110.133 129.523 111.711C128.992 113.273 128.211 114.641 127.18 115.812C126.148 116.969 124.875 117.867 123.359 118.508C121.844 119.148 120.094 119.469 118.109 119.469C116.125 119.469 114.367 119.148 112.836 118.508C111.305 117.867 110.023 116.969 108.992 115.812C107.961 114.641 107.18 113.273 106.648 111.711C106.117 110.133 105.852 108.422 105.852 106.578ZM113.75 106.086V106.578C113.75 107.531 113.82 108.422 113.961 109.25C114.102 110.078 114.336 110.805 114.664 111.43C114.992 112.039 115.438 112.516 116 112.859C116.562 113.203 117.266 113.375 118.109 113.375C118.938 113.375 119.625 113.203 120.172 112.859C120.734 112.516 121.18 112.039 121.508 111.43C121.836 110.805 122.07 110.078 122.211 109.25C122.352 108.422 122.422 107.531 122.422 106.578V106.086C122.422 105.164 122.352 104.297 122.211 103.484C122.07 102.656 121.836 101.93 121.508 101.305C121.18 100.664 120.734 100.164 120.172 99.8047C119.609 99.4453 118.906 99.2656 118.062 99.2656C117.234 99.2656 116.539 99.4453 115.977 99.8047C115.43 100.164 114.992 100.664 114.664 101.305C114.336 101.93 114.102 102.656 113.961 103.484C113.82 104.297 113.75 105.164 113.75 106.086ZM134.422 93.6406H142.344V119.82C142.344 121.852 141.953 123.562 141.172 124.953C140.391 126.359 139.273 127.422 137.82 128.141C136.367 128.875 134.633 129.242 132.617 129.242C131.945 129.242 131.328 129.211 130.766 129.148C130.188 129.102 129.555 129 128.867 128.844V122.867C129.273 122.93 129.648 122.977 129.992 123.008C130.336 123.055 130.711 123.078 131.117 123.078C131.836 123.078 132.438 122.961 132.922 122.727C133.406 122.492 133.773 122.133 134.023 121.648C134.289 121.164 134.422 120.555 134.422 119.82V93.6406ZM133.836 87.1016C133.836 85.9766 134.242 85.0547 135.055 84.3359C135.867 83.6172 136.922 83.2578 138.219 83.2578C139.516 83.2578 140.57 83.6172 141.383 84.3359C142.195 85.0547 142.602 85.9766 142.602 87.1016C142.602 88.2266 142.195 89.1484 141.383 89.8672C140.57 90.5859 139.516 90.9453 138.219 90.9453C136.922 90.9453 135.867 90.5859 135.055 89.8672C134.242 89.1484 133.836 88.2266 133.836 87.1016ZM159.102 119.469C157.039 119.469 155.195 119.148 153.57 118.508C151.945 117.852 150.57 116.953 149.445 115.812C148.336 114.672 147.484 113.359 146.891 111.875C146.312 110.391 146.023 108.82 146.023 107.164V106.273C146.023 104.414 146.281 102.695 146.797 101.117C147.312 99.5234 148.078 98.1328 149.094 96.9453C150.109 95.7578 151.383 94.8359 152.914 94.1797C154.445 93.5078 156.227 93.1719 158.258 93.1719C160.055 93.1719 161.664 93.4609 163.086 94.0391C164.508 94.6172 165.711 95.4453 166.695 96.5234C167.695 97.6016 168.453 98.9062 168.969 100.438C169.5 101.969 169.766 103.688 169.766 105.594V108.805H149.047V103.859H162.055V103.25C162.07 102.406 161.922 101.688 161.609 101.094C161.312 100.5 160.875 100.047 160.297 99.7344C159.719 99.4219 159.016 99.2656 158.188 99.2656C157.328 99.2656 156.617 99.4531 156.055 99.8281C155.508 100.203 155.078 100.719 154.766 101.375C154.469 102.016 154.258 102.758 154.133 103.602C154.008 104.445 153.945 105.336 153.945 106.273V107.164C153.945 108.102 154.07 108.953 154.32 109.719C154.586 110.484 154.961 111.141 155.445 111.688C155.945 112.219 156.539 112.633 157.227 112.93C157.93 113.227 158.727 113.375 159.617 113.375C160.695 113.375 161.758 113.172 162.805 112.766C163.852 112.359 164.75 111.688 165.5 110.75L169.086 115.016C168.57 115.75 167.836 116.461 166.883 117.148C165.945 117.836 164.82 118.398 163.508 118.836C162.195 119.258 160.727 119.469 159.102 119.469ZM183.688 113.375C184.422 113.375 185.047 113.242 185.562 112.977C186.094 112.695 186.492 112.305 186.758 111.805C187.039 111.289 187.172 110.672 187.156 109.953H194.586C194.602 111.859 194.133 113.531 193.18 114.969C192.242 116.391 190.961 117.5 189.336 118.297C187.727 119.078 185.906 119.469 183.875 119.469C181.891 119.469 180.156 119.148 178.672 118.508C177.188 117.852 175.945 116.945 174.945 115.789C173.961 114.617 173.219 113.25 172.719 111.688C172.234 110.125 171.992 108.43 171.992 106.602V106.062C171.992 104.234 172.234 102.539 172.719 100.977C173.219 99.3984 173.961 98.0312 174.945 96.875C175.945 95.7031 177.18 94.7969 178.648 94.1562C180.133 93.5 181.859 93.1719 183.828 93.1719C185.938 93.1719 187.797 93.5703 189.406 94.3672C191.031 95.1641 192.305 96.3203 193.227 97.8359C194.148 99.3516 194.602 101.188 194.586 103.344H187.156C187.172 102.578 187.055 101.891 186.805 101.281C186.555 100.672 186.164 100.188 185.633 99.8281C185.117 99.4531 184.453 99.2656 183.641 99.2656C182.828 99.2656 182.172 99.4453 181.672 99.8047C181.172 100.164 180.789 100.664 180.523 101.305C180.273 101.93 180.102 102.648 180.008 103.461C179.93 104.273 179.891 105.141 179.891 106.062V106.602C179.891 107.539 179.93 108.422 180.008 109.25C180.102 110.062 180.281 110.781 180.547 111.406C180.812 112.016 181.195 112.5 181.695 112.859C182.195 113.203 182.859 113.375 183.688 113.375ZM211.32 93.6406V99.125H196.039V93.6406H211.32ZM199.25 87.3359H207.148V110.727C207.148 111.398 207.227 111.922 207.383 112.297C207.539 112.656 207.805 112.914 208.18 113.07C208.57 113.211 209.086 113.281 209.727 113.281C210.18 113.281 210.555 113.273 210.852 113.258C211.148 113.227 211.43 113.188 211.695 113.141V118.789C211.023 119.008 210.32 119.172 209.586 119.281C208.852 119.406 208.07 119.469 207.242 119.469C205.555 119.469 204.109 119.203 202.906 118.672C201.719 118.141 200.812 117.305 200.188 116.164C199.562 115.023 199.25 113.539 199.25 111.711V87.3359ZM240.406 107.422H231.922V101.07H240.406C241.562 101.07 242.5 100.875 243.219 100.484C243.938 100.094 244.461 99.5547 244.789 98.8672C245.133 98.1641 245.305 97.375 245.305 96.5C245.305 95.5625 245.133 94.6953 244.789 93.8984C244.461 93.1016 243.938 92.4609 243.219 91.9766C242.5 91.4766 241.562 91.2266 240.406 91.2266H235.016V119H226.789V84.875H240.406C243.141 84.875 245.492 85.375 247.461 86.375C249.445 87.375 250.969 88.75 252.031 90.5C253.094 92.2344 253.625 94.2188 253.625 96.4531C253.625 98.6562 253.094 100.578 252.031 102.219C250.969 103.859 249.445 105.141 247.461 106.062C245.492 106.969 243.141 107.422 240.406 107.422ZM265.414 83V119H257.516V83H265.414ZM264.477 105.453L262.625 105.5C262.625 103.719 262.844 102.078 263.281 100.578C263.719 99.0781 264.344 97.7734 265.156 96.6641C265.969 95.5547 266.945 94.6953 268.086 94.0859C269.227 93.4766 270.492 93.1719 271.883 93.1719C273.133 93.1719 274.273 93.3516 275.305 93.7109C276.352 94.0703 277.25 94.6484 278 95.4453C278.766 96.2422 279.352 97.2812 279.758 98.5625C280.18 99.8438 280.391 101.406 280.391 103.25V119H272.445V103.203C272.445 102.172 272.297 101.375 272 100.812C271.719 100.234 271.312 99.8359 270.781 99.6172C270.25 99.3828 269.602 99.2656 268.836 99.2656C267.914 99.2656 267.164 99.4219 266.586 99.7344C266.008 100.047 265.562 100.484 265.25 101.047C264.953 101.594 264.75 102.242 264.641 102.992C264.531 103.742 264.477 104.562 264.477 105.453ZM293.117 93.6406V119H285.195V93.6406H293.117ZM284.727 87.1016C284.727 85.9766 285.133 85.0547 285.945 84.3359C286.758 83.6172 287.812 83.2578 289.109 83.2578C290.406 83.2578 291.461 83.6172 292.273 84.3359C293.086 85.0547 293.492 85.9766 293.492 87.1016C293.492 88.2266 293.086 89.1484 292.273 89.8672C291.461 90.5859 290.406 90.9453 289.109 90.9453C287.812 90.9453 286.758 90.5859 285.945 89.8672C285.133 89.1484 284.727 88.2266 284.727 87.1016ZM306.336 83V119H298.414V83H306.336ZM310.227 106.578V106.086C310.227 104.227 310.492 102.516 311.023 100.953C311.555 99.375 312.336 98.0078 313.367 96.8516C314.398 95.6953 315.672 94.7969 317.188 94.1562C318.703 93.5 320.453 93.1719 322.438 93.1719C324.438 93.1719 326.195 93.5 327.711 94.1562C329.242 94.7969 330.523 95.6953 331.555 96.8516C332.586 98.0078 333.367 99.375 333.898 100.953C334.43 102.516 334.695 104.227 334.695 106.086V106.578C334.695 108.422 334.43 110.133 333.898 111.711C333.367 113.273 332.586 114.641 331.555 115.812C330.523 116.969 329.25 117.867 327.734 118.508C326.219 119.148 324.469 119.469 322.484 119.469C320.5 119.469 318.742 119.148 317.211 118.508C315.68 117.867 314.398 116.969 313.367 115.812C312.336 114.641 311.555 113.273 311.023 111.711C310.492 110.133 310.227 108.422 310.227 106.578ZM318.125 106.086V106.578C318.125 107.531 318.195 108.422 318.336 109.25C318.477 110.078 318.711 110.805 319.039 111.43C319.367 112.039 319.812 112.516 320.375 112.859C320.938 113.203 321.641 113.375 322.484 113.375C323.312 113.375 324 113.203 324.547 112.859C325.109 112.516 325.555 112.039 325.883 111.43C326.211 110.805 326.445 110.078 326.586 109.25C326.727 108.422 326.797 107.531 326.797 106.578V106.086C326.797 105.164 326.727 104.297 326.586 103.484C326.445 102.656 326.211 101.93 325.883 101.305C325.555 100.664 325.109 100.164 324.547 99.8047C323.984 99.4453 323.281 99.2656 322.438 99.2656C321.609 99.2656 320.914 99.4453 320.352 99.8047C319.805 100.164 319.367 100.664 319.039 101.305C318.711 101.93 318.477 102.656 318.336 103.484C318.195 104.297 318.125 105.164 318.125 106.086ZM351.5 111.875C351.5 111.438 351.352 111.062 351.055 110.75C350.773 110.422 350.273 110.125 349.555 109.859C348.836 109.578 347.828 109.297 346.531 109.016C345.297 108.75 344.133 108.398 343.039 107.961C341.961 107.523 341.016 106.992 340.203 106.367C339.391 105.742 338.75 105 338.281 104.141C337.828 103.281 337.602 102.297 337.602 101.188C337.602 100.109 337.828 99.0938 338.281 98.1406C338.75 97.1719 339.43 96.3203 340.32 95.5859C341.227 94.8359 342.328 94.25 343.625 93.8281C344.922 93.3906 346.398 93.1719 348.055 93.1719C350.336 93.1719 352.305 93.5234 353.961 94.2266C355.617 94.9141 356.891 95.8828 357.781 97.1328C358.688 98.3672 359.141 99.7969 359.141 101.422H351.242C351.242 100.781 351.133 100.234 350.914 99.7812C350.711 99.3281 350.375 98.9844 349.906 98.75C349.438 98.5 348.812 98.375 348.031 98.375C347.484 98.375 346.984 98.4766 346.531 98.6797C346.094 98.8828 345.742 99.1641 345.477 99.5234C345.211 99.8828 345.078 100.305 345.078 100.789C345.078 101.133 345.156 101.445 345.312 101.727C345.484 101.992 345.742 102.242 346.086 102.477C346.43 102.695 346.867 102.898 347.398 103.086C347.93 103.258 348.57 103.414 349.32 103.555C351.023 103.867 352.617 104.312 354.102 104.891C355.586 105.469 356.789 106.289 357.711 107.352C358.648 108.414 359.117 109.844 359.117 111.641C359.117 112.766 358.859 113.805 358.344 114.758C357.828 115.695 357.086 116.523 356.117 117.242C355.148 117.945 353.984 118.492 352.625 118.883C351.266 119.273 349.734 119.469 348.031 119.469C345.609 119.469 343.562 119.039 341.891 118.18C340.219 117.305 338.953 116.211 338.094 114.898C337.25 113.57 336.828 112.227 336.828 110.867H344.188C344.219 111.648 344.406 112.289 344.75 112.789C345.109 113.289 345.586 113.656 346.18 113.891C346.773 114.125 347.461 114.242 348.242 114.242C348.961 114.242 349.555 114.141 350.023 113.938C350.508 113.734 350.875 113.461 351.125 113.117C351.375 112.758 351.5 112.344 351.5 111.875ZM361.836 106.578V106.086C361.836 104.227 362.102 102.516 362.633 100.953C363.164 99.375 363.945 98.0078 364.977 96.8516C366.008 95.6953 367.281 94.7969 368.797 94.1562C370.312 93.5 372.062 93.1719 374.047 93.1719C376.047 93.1719 377.805 93.5 379.32 94.1562C380.852 94.7969 382.133 95.6953 383.164 96.8516C384.195 98.0078 384.977 99.375 385.508 100.953C386.039 102.516 386.305 104.227 386.305 106.086V106.578C386.305 108.422 386.039 110.133 385.508 111.711C384.977 113.273 384.195 114.641 383.164 115.812C382.133 116.969 380.859 117.867 379.344 118.508C377.828 119.148 376.078 119.469 374.094 119.469C372.109 119.469 370.352 119.148 368.82 118.508C367.289 117.867 366.008 116.969 364.977 115.812C363.945 114.641 363.164 113.273 362.633 111.711C362.102 110.133 361.836 108.422 361.836 106.578ZM369.734 106.086V106.578C369.734 107.531 369.805 108.422 369.945 109.25C370.086 110.078 370.32 110.805 370.648 111.43C370.977 112.039 371.422 112.516 371.984 112.859C372.547 113.203 373.25 113.375 374.094 113.375C374.922 113.375 375.609 113.203 376.156 112.859C376.719 112.516 377.164 112.039 377.492 111.43C377.82 110.805 378.055 110.078 378.195 109.25C378.336 108.422 378.406 107.531 378.406 106.578V106.086C378.406 105.164 378.336 104.297 378.195 103.484C378.055 102.656 377.82 101.93 377.492 101.305C377.164 100.664 376.719 100.164 376.156 99.8047C375.594 99.4453 374.891 99.2656 374.047 99.2656C373.219 99.2656 372.523 99.4453 371.961 99.8047C371.414 100.164 370.977 100.664 370.648 101.305C370.32 101.93 370.086 102.656 369.945 103.484C369.805 104.297 369.734 105.164 369.734 106.086ZM397.789 98.5156V128.75H389.891V93.6406H397.25L397.789 98.5156ZM413.352 106.016V106.508C413.352 108.352 413.141 110.062 412.719 111.641C412.297 113.219 411.672 114.594 410.844 115.766C410.016 116.938 408.984 117.852 407.75 118.508C406.531 119.148 405.117 119.469 403.508 119.469C401.992 119.469 400.688 119.133 399.594 118.461C398.5 117.789 397.586 116.859 396.852 115.672C396.117 114.484 395.523 113.125 395.07 111.594C394.617 110.062 394.258 108.445 393.992 106.742V106.109C394.258 104.281 394.617 102.586 395.07 101.023C395.523 99.4453 396.117 98.0703 396.852 96.8984C397.586 95.7266 398.492 94.8125 399.57 94.1562C400.664 93.5 401.969 93.1719 403.484 93.1719C405.094 93.1719 406.508 93.4766 407.727 94.0859C408.961 94.6953 409.992 95.5703 410.82 96.7109C411.664 97.8359 412.297 99.1875 412.719 100.766C413.141 102.344 413.352 104.094 413.352 106.016ZM405.453 106.508V106.016C405.453 105.031 405.383 104.133 405.242 103.32C405.102 102.492 404.875 101.773 404.562 101.164C404.266 100.555 403.867 100.086 403.367 99.7578C402.867 99.4297 402.25 99.2656 401.516 99.2656C400.672 99.2656 399.961 99.3984 399.383 99.6641C398.82 99.9141 398.367 100.305 398.023 100.836C397.695 101.352 397.461 102 397.32 102.781C397.195 103.547 397.141 104.445 397.156 105.477V107.398C397.125 108.586 397.242 109.633 397.508 110.539C397.773 111.43 398.234 112.125 398.891 112.625C399.547 113.125 400.438 113.375 401.562 113.375C402.312 113.375 402.938 113.203 403.438 112.859C403.938 112.5 404.336 112.008 404.633 111.383C404.93 110.742 405.141 110.008 405.266 109.18C405.391 108.352 405.453 107.461 405.453 106.508ZM424.602 83V119H416.703V83H424.602ZM423.664 105.453L421.812 105.5C421.812 103.719 422.031 102.078 422.469 100.578C422.906 99.0781 423.531 97.7734 424.344 96.6641C425.156 95.5547 426.133 94.6953 427.273 94.0859C428.414 93.4766 429.68 93.1719 431.07 93.1719C432.32 93.1719 433.461 93.3516 434.492 93.7109C435.539 94.0703 436.438 94.6484 437.188 95.4453C437.953 96.2422 438.539 97.2812 438.945 98.5625C439.367 99.8438 439.578 101.406 439.578 103.25V119H431.633V103.203C431.633 102.172 431.484 101.375 431.188 100.812C430.906 100.234 430.5 99.8359 429.969 99.6172C429.438 99.3828 428.789 99.2656 428.023 99.2656C427.102 99.2656 426.352 99.4219 425.773 99.7344C425.195 100.047 424.75 100.484 424.438 101.047C424.141 101.594 423.938 102.242 423.828 102.992C423.719 103.742 423.664 104.562 423.664 105.453ZM451.742 116.023L458.305 93.6406H466.789L456.594 122.773C456.375 123.414 456.086 124.102 455.727 124.836C455.367 125.586 454.875 126.297 454.25 126.969C453.625 127.641 452.82 128.188 451.836 128.609C450.867 129.031 449.664 129.242 448.227 129.242C447.461 129.242 446.898 129.203 446.539 129.125C446.195 129.062 445.664 128.945 444.945 128.773V123.125C445.148 123.125 445.32 123.125 445.461 123.125C445.617 123.125 445.789 123.125 445.977 123.125C446.82 123.125 447.492 123.039 447.992 122.867C448.508 122.695 448.898 122.445 449.164 122.117C449.445 121.789 449.664 121.391 449.82 120.922L451.742 116.023ZM450.078 93.6406L455.07 111.383L455.938 119.75H450.641L441.617 93.6406H450.078Z" fill="black"/>
</svg>
