<svg width="1363" height="163" viewBox="0 0 1363 163" fill="none" xmlns="http://www.w3.org/2000/svg">
<path d="M0 15C0 6.71573 6.71573 0 15 0H37V163H15C6.71573 163 0 156.284 0 148V15Z" fill="#FFD700"/>
<rect width="1097" height="163" transform="translate(37)" fill="#F0F0F0"/>
<path d="M101.906 53.9219L94.3945 51.2383V48.0859L104.602 52.375V54.6367L101.906 53.9219ZM94.3945 56.1719L101.918 53.4297L104.602 52.7852V55.0352L94.3945 59.3242V56.1719ZM116.637 43.9375V61H113.133V43.9375H116.637ZM123.023 51.0273V61H119.648V48.3203H122.812L123.023 51.0273ZM122.531 54.2148H121.617C121.617 53.2773 121.738 52.4336 121.98 51.6836C122.223 50.9258 122.562 50.2812 123 49.75C123.438 49.2109 123.957 48.8008 124.559 48.5195C125.168 48.2305 125.848 48.0859 126.598 48.0859C127.191 48.0859 127.734 48.1719 128.227 48.3438C128.719 48.5156 129.141 48.7891 129.492 49.1641C129.852 49.5391 130.125 50.0352 130.312 50.6523C130.508 51.2695 130.605 52.0234 130.605 52.9141V61H127.207V52.9023C127.207 52.3398 127.129 51.9023 126.973 51.5898C126.816 51.2773 126.586 51.0586 126.281 50.9336C125.984 50.8008 125.617 50.7344 125.18 50.7344C124.727 50.7344 124.332 50.8242 123.996 51.0039C123.668 51.1836 123.395 51.4336 123.176 51.7539C122.965 52.0664 122.805 52.4336 122.695 52.8555C122.586 53.2773 122.531 53.7305 122.531 54.2148ZM136.477 51.0273V61H133.102V48.3203H136.266L136.477 51.0273ZM135.984 54.2148H135.07C135.07 53.2773 135.191 52.4336 135.434 51.6836C135.676 50.9258 136.016 50.2812 136.453 49.75C136.891 49.2109 137.41 48.8008 138.012 48.5195C138.621 48.2305 139.301 48.0859 140.051 48.0859C140.645 48.0859 141.188 48.1719 141.68 48.3438C142.172 48.5156 142.594 48.7891 142.945 49.1641C143.305 49.5391 143.578 50.0352 143.766 50.6523C143.961 51.2695 144.059 52.0234 144.059 52.9141V61H140.66V52.9023C140.66 52.3398 140.582 51.9023 140.426 51.5898C140.27 51.2773 140.039 51.0586 139.734 50.9336C139.438 50.8008 139.07 50.7344 138.633 50.7344C138.18 50.7344 137.785 50.8242 137.449 51.0039C137.121 51.1836 136.848 51.4336 136.629 51.7539C136.418 52.0664 136.258 52.4336 136.148 52.8555C136.039 53.2773 135.984 53.7305 135.984 54.2148ZM146.086 54.7891V54.543C146.086 53.6133 146.219 52.7578 146.484 51.9766C146.75 51.1875 147.137 50.5039 147.645 49.9258C148.152 49.3477 148.777 48.8984 149.52 48.5781C150.262 48.25 151.113 48.0859 152.074 48.0859C153.035 48.0859 153.891 48.25 154.641 48.5781C155.391 48.8984 156.02 49.3477 156.527 49.9258C157.043 50.5039 157.434 51.1875 157.699 51.9766C157.965 52.7578 158.098 53.6133 158.098 54.543V54.7891C158.098 55.7109 157.965 56.5664 157.699 57.3555C157.434 58.1367 157.043 58.8203 156.527 59.4062C156.02 59.9844 155.395 60.4336 154.652 60.7539C153.91 61.0742 153.059 61.2344 152.098 61.2344C151.137 61.2344 150.281 61.0742 149.531 60.7539C148.789 60.4336 148.16 59.9844 147.645 59.4062C147.137 58.8203 146.75 58.1367 146.484 57.3555C146.219 56.5664 146.086 55.7109 146.086 54.7891ZM149.461 54.543V54.7891C149.461 55.3203 149.508 55.8164 149.602 56.2773C149.695 56.7383 149.844 57.1445 150.047 57.4961C150.258 57.8398 150.531 58.1094 150.867 58.3047C151.203 58.5 151.613 58.5977 152.098 58.5977C152.566 58.5977 152.969 58.5 153.305 58.3047C153.641 58.1094 153.91 57.8398 154.113 57.4961C154.316 57.1445 154.465 56.7383 154.559 56.2773C154.66 55.8164 154.711 55.3203 154.711 54.7891V54.543C154.711 54.0273 154.66 53.543 154.559 53.0898C154.465 52.6289 154.312 52.2227 154.102 51.8711C153.898 51.5117 153.629 51.2305 153.293 51.0273C152.957 50.8242 152.551 50.7227 152.074 50.7227C151.598 50.7227 151.191 50.8242 150.855 51.0273C150.527 51.2305 150.258 51.5117 150.047 51.8711C149.844 52.2227 149.695 52.6289 149.602 53.0898C149.508 53.543 149.461 54.0273 149.461 54.543ZM164.297 58.5391L167.109 48.3203H170.637L166.359 61H164.227L164.297 58.5391ZM162.363 48.3203L165.188 58.5508L165.246 61H163.102L158.824 48.3203H162.363ZM178.805 58.1406V52.4922C178.805 52.0859 178.738 51.7383 178.605 51.4492C178.473 51.1523 178.266 50.9219 177.984 50.7578C177.711 50.5938 177.355 50.5117 176.918 50.5117C176.543 50.5117 176.219 50.5781 175.945 50.7109C175.672 50.8359 175.461 51.0195 175.312 51.2617C175.164 51.4961 175.09 51.7734 175.09 52.0938H171.715C171.715 51.5547 171.84 51.043 172.09 50.5586C172.34 50.0742 172.703 49.6484 173.18 49.2812C173.656 48.9062 174.223 48.6133 174.879 48.4023C175.543 48.1914 176.285 48.0859 177.105 48.0859C178.09 48.0859 178.965 48.25 179.73 48.5781C180.496 48.9062 181.098 49.3984 181.535 50.0547C181.98 50.7109 182.203 51.5312 182.203 52.5156V57.9414C182.203 58.6367 182.246 59.207 182.332 59.6523C182.418 60.0898 182.543 60.4727 182.707 60.8008V61H179.297C179.133 60.6562 179.008 60.2266 178.922 59.7109C178.844 59.1875 178.805 58.6641 178.805 58.1406ZM179.25 53.2773L179.273 55.1875H177.387C176.941 55.1875 176.555 55.2383 176.227 55.3398C175.898 55.4414 175.629 55.5859 175.418 55.7734C175.207 55.9531 175.051 56.1641 174.949 56.4062C174.855 56.6484 174.809 56.9141 174.809 57.2031C174.809 57.4922 174.875 57.7539 175.008 57.9883C175.141 58.2148 175.332 58.3945 175.582 58.5273C175.832 58.6523 176.125 58.7148 176.461 58.7148C176.969 58.7148 177.41 58.6133 177.785 58.4102C178.16 58.207 178.449 57.957 178.652 57.6602C178.863 57.3633 178.973 57.082 178.98 56.8164L179.871 58.2461C179.746 58.5664 179.574 58.8984 179.355 59.2422C179.145 59.5859 178.875 59.9102 178.547 60.2148C178.219 60.5117 177.824 60.7578 177.363 60.9531C176.902 61.1406 176.355 61.2344 175.723 61.2344C174.918 61.2344 174.188 61.0742 173.531 60.7539C172.883 60.4258 172.367 59.9766 171.984 59.4062C171.609 58.8281 171.422 58.1719 171.422 57.4375C171.422 56.7734 171.547 56.1836 171.797 55.668C172.047 55.1523 172.414 54.7188 172.898 54.3672C173.391 54.0078 174.004 53.7383 174.738 53.5586C175.473 53.3711 176.324 53.2773 177.293 53.2773H179.25ZM191.016 48.3203V50.7109H183.633V48.3203H191.016ZM185.461 45.1914H188.836V57.1797C188.836 57.5469 188.883 57.8281 188.977 58.0234C189.078 58.2188 189.227 58.3555 189.422 58.4336C189.617 58.5039 189.863 58.5391 190.16 58.5391C190.371 58.5391 190.559 58.5312 190.723 58.5156C190.895 58.4922 191.039 58.4688 191.156 58.4453L191.168 60.9297C190.879 61.0234 190.566 61.0977 190.23 61.1523C189.895 61.207 189.523 61.2344 189.117 61.2344C188.375 61.2344 187.727 61.1133 187.172 60.8711C186.625 60.6211 186.203 60.2227 185.906 59.6758C185.609 59.1289 185.461 58.4102 185.461 57.5195V45.1914ZM196.5 48.3203V61H193.113V48.3203H196.5ZM192.902 45.0156C192.902 44.5234 193.074 44.1172 193.418 43.7969C193.762 43.4766 194.223 43.3164 194.801 43.3164C195.371 43.3164 195.828 43.4766 196.172 43.7969C196.523 44.1172 196.699 44.5234 196.699 45.0156C196.699 45.5078 196.523 45.9141 196.172 46.2344C195.828 46.5547 195.371 46.7148 194.801 46.7148C194.223 46.7148 193.762 46.5547 193.418 46.2344C193.074 45.9141 192.902 45.5078 192.902 45.0156ZM203.602 58.5391L206.414 48.3203H209.941L205.664 61H203.531L203.602 58.5391ZM201.668 48.3203L204.492 58.5508L204.551 61H202.406L198.129 48.3203H201.668ZM217.125 61.2344C216.141 61.2344 215.258 61.0781 214.477 60.7656C213.695 60.4453 213.031 60.0039 212.484 59.4414C211.945 58.8789 211.531 58.2266 211.242 57.4844C210.953 56.7344 210.809 55.9375 210.809 55.0938V54.625C210.809 53.6641 210.945 52.7852 211.219 51.9883C211.492 51.1914 211.883 50.5 212.391 49.9141C212.906 49.3281 213.531 48.8789 214.266 48.5664C215 48.2461 215.828 48.0859 216.75 48.0859C217.648 48.0859 218.445 48.2344 219.141 48.5312C219.836 48.8281 220.418 49.25 220.887 49.7969C221.363 50.3438 221.723 51 221.965 51.7656C222.207 52.5234 222.328 53.3672 222.328 54.2969V55.7031H212.25V53.4531H219.012V53.1953C219.012 52.7266 218.926 52.3086 218.754 51.9414C218.59 51.5664 218.34 51.2695 218.004 51.0508C217.668 50.832 217.238 50.7227 216.715 50.7227C216.27 50.7227 215.887 50.8203 215.566 51.0156C215.246 51.2109 214.984 51.4844 214.781 51.8359C214.586 52.1875 214.438 52.6016 214.336 53.0781C214.242 53.5469 214.195 54.0625 214.195 54.625V55.0938C214.195 55.6016 214.266 56.0703 214.406 56.5C214.555 56.9297 214.762 57.3008 215.027 57.6133C215.301 57.9258 215.629 58.168 216.012 58.3398C216.402 58.5117 216.844 58.5977 217.336 58.5977C217.945 58.5977 218.512 58.4805 219.035 58.2461C219.566 58.0039 220.023 57.6406 220.406 57.1562L222.047 58.9375C221.781 59.3203 221.418 59.6875 220.957 60.0391C220.504 60.3906 219.957 60.6797 219.316 60.9062C218.676 61.125 217.945 61.2344 217.125 61.2344ZM226.066 43.9375H229.043L233.426 56.4648L237.809 43.9375H240.785L234.621 61H232.23L226.066 43.9375ZM224.461 43.9375H227.426L227.965 56.1484V61H224.461V43.9375ZM239.426 43.9375H242.402V61H238.887V56.1484L239.426 43.9375ZM256.453 58.2578V61H247.863V58.2578H256.453ZM249 43.9375V61H245.484V43.9375H249Z" fill="#888888"/>
<path d="M108.516 110.961L115.617 84.875H124.828L113.32 119H107.367L108.516 110.961ZM102.07 84.875L109.172 110.961L110.367 119H104.344L92.9062 84.875H102.07ZM135.305 93.6406V119H127.383V93.6406H135.305ZM126.914 87.1016C126.914 85.9766 127.32 85.0547 128.133 84.3359C128.945 83.6172 130 83.2578 131.297 83.2578C132.594 83.2578 133.648 83.6172 134.461 84.3359C135.273 85.0547 135.68 85.9766 135.68 87.1016C135.68 88.2266 135.273 89.1484 134.461 89.8672C133.648 90.5859 132.594 90.9453 131.297 90.9453C130 90.9453 128.945 90.5859 128.133 89.8672C127.32 89.1484 126.914 88.2266 126.914 87.1016ZM154.758 113.188V83H162.703V119H155.578L154.758 113.188ZM139.195 106.625V106.133C139.195 104.211 139.406 102.461 139.828 100.883C140.25 99.2891 140.875 97.9219 141.703 96.7812C142.531 95.625 143.562 94.7344 144.797 94.1094C146.031 93.4844 147.453 93.1719 149.062 93.1719C150.5 93.1719 151.758 93.5078 152.836 94.1797C153.914 94.8359 154.836 95.7578 155.602 96.9453C156.367 98.1328 156.992 99.5234 157.477 101.117C157.961 102.695 158.328 104.398 158.578 106.227V106.812C158.328 108.531 157.961 110.156 157.477 111.688C156.992 113.203 156.367 114.547 155.602 115.719C154.836 116.891 153.906 117.812 152.812 118.484C151.734 119.141 150.469 119.469 149.016 119.469C147.406 119.469 145.984 119.148 144.75 118.508C143.531 117.867 142.508 116.969 141.68 115.812C140.867 114.656 140.25 113.297 139.828 111.734C139.406 110.172 139.195 108.469 139.195 106.625ZM147.094 106.133V106.625C147.094 107.578 147.156 108.461 147.281 109.273C147.406 110.086 147.617 110.805 147.914 111.43C148.227 112.039 148.633 112.516 149.133 112.859C149.648 113.203 150.281 113.375 151.031 113.375C152.047 113.375 152.883 113.133 153.539 112.648C154.211 112.164 154.703 111.477 155.016 110.586C155.344 109.695 155.484 108.648 155.438 107.445V105.594C155.469 104.562 155.398 103.656 155.227 102.875C155.055 102.078 154.781 101.414 154.406 100.883C154.047 100.352 153.586 99.9531 153.023 99.6875C152.477 99.4062 151.828 99.2656 151.078 99.2656C150.344 99.2656 149.719 99.4375 149.203 99.7812C148.703 100.125 148.297 100.609 147.984 101.234C147.672 101.844 147.445 102.57 147.305 103.414C147.164 104.242 147.094 105.148 147.094 106.133ZM179.461 119.469C177.398 119.469 175.555 119.148 173.93 118.508C172.305 117.852 170.93 116.953 169.805 115.812C168.695 114.672 167.844 113.359 167.25 111.875C166.672 110.391 166.383 108.82 166.383 107.164V106.273C166.383 104.414 166.641 102.695 167.156 101.117C167.672 99.5234 168.438 98.1328 169.453 96.9453C170.469 95.7578 171.742 94.8359 173.273 94.1797C174.805 93.5078 176.586 93.1719 178.617 93.1719C180.414 93.1719 182.023 93.4609 183.445 94.0391C184.867 94.6172 186.07 95.4453 187.055 96.5234C188.055 97.6016 188.812 98.9062 189.328 100.438C189.859 101.969 190.125 103.688 190.125 105.594V108.805H169.406V103.859H182.414V103.25C182.43 102.406 182.281 101.688 181.969 101.094C181.672 100.5 181.234 100.047 180.656 99.7344C180.078 99.4219 179.375 99.2656 178.547 99.2656C177.688 99.2656 176.977 99.4531 176.414 99.8281C175.867 100.203 175.438 100.719 175.125 101.375C174.828 102.016 174.617 102.758 174.492 103.602C174.367 104.445 174.305 105.336 174.305 106.273V107.164C174.305 108.102 174.43 108.953 174.68 109.719C174.945 110.484 175.32 111.141 175.805 111.688C176.305 112.219 176.898 112.633 177.586 112.93C178.289 113.227 179.086 113.375 179.977 113.375C181.055 113.375 182.117 113.172 183.164 112.766C184.211 112.359 185.109 111.688 185.859 110.75L189.445 115.016C188.93 115.75 188.195 116.461 187.242 117.148C186.305 117.836 185.18 118.398 183.867 118.836C182.555 119.258 181.086 119.469 179.461 119.469ZM192.352 106.578V106.086C192.352 104.227 192.617 102.516 193.148 100.953C193.68 99.375 194.461 98.0078 195.492 96.8516C196.523 95.6953 197.797 94.7969 199.312 94.1562C200.828 93.5 202.578 93.1719 204.562 93.1719C206.562 93.1719 208.32 93.5 209.836 94.1562C211.367 94.7969 212.648 95.6953 213.68 96.8516C214.711 98.0078 215.492 99.375 216.023 100.953C216.555 102.516 216.82 104.227 216.82 106.086V106.578C216.82 108.422 216.555 110.133 216.023 111.711C215.492 113.273 214.711 114.641 213.68 115.812C212.648 116.969 211.375 117.867 209.859 118.508C208.344 119.148 206.594 119.469 204.609 119.469C202.625 119.469 200.867 119.148 199.336 118.508C197.805 117.867 196.523 116.969 195.492 115.812C194.461 114.641 193.68 113.273 193.148 111.711C192.617 110.133 192.352 108.422 192.352 106.578ZM200.25 106.086V106.578C200.25 107.531 200.32 108.422 200.461 109.25C200.602 110.078 200.836 110.805 201.164 111.43C201.492 112.039 201.938 112.516 202.5 112.859C203.062 113.203 203.766 113.375 204.609 113.375C205.438 113.375 206.125 113.203 206.672 112.859C207.234 112.516 207.68 112.039 208.008 111.43C208.336 110.805 208.57 110.078 208.711 109.25C208.852 108.422 208.922 107.531 208.922 106.578V106.086C208.922 105.164 208.852 104.297 208.711 103.484C208.57 102.656 208.336 101.93 208.008 101.305C207.68 100.664 207.234 100.164 206.672 99.8047C206.109 99.4453 205.406 99.2656 204.562 99.2656C203.734 99.2656 203.039 99.4453 202.477 99.8047C201.93 100.164 201.492 100.664 201.164 101.305C200.836 101.93 200.602 102.656 200.461 103.484C200.32 104.297 200.25 105.164 200.25 106.086ZM250.242 109.93C250.242 109.398 250.164 108.922 250.008 108.5C249.852 108.062 249.562 107.656 249.141 107.281C248.719 106.906 248.109 106.531 247.312 106.156C246.531 105.766 245.5 105.359 244.219 104.938C242.719 104.438 241.273 103.875 239.883 103.25C238.492 102.609 237.25 101.867 236.156 101.023C235.062 100.164 234.195 99.1641 233.555 98.0234C232.914 96.8672 232.594 95.5234 232.594 93.9922C232.594 92.5234 232.922 91.2031 233.578 90.0312C234.234 88.8438 235.148 87.8359 236.32 87.0078C237.508 86.1641 238.898 85.5234 240.492 85.0859C242.086 84.6328 243.828 84.4062 245.719 84.4062C248.219 84.4062 250.422 84.8438 252.328 85.7188C254.25 86.5781 255.75 87.8047 256.828 89.3984C257.922 90.9766 258.469 92.8438 258.469 95H250.289C250.289 94.1406 250.109 93.3828 249.75 92.7266C249.406 92.0703 248.883 91.5547 248.18 91.1797C247.477 90.8047 246.594 90.6172 245.531 90.6172C244.5 90.6172 243.633 90.7734 242.93 91.0859C242.227 91.3984 241.695 91.8203 241.336 92.3516C240.977 92.8672 240.797 93.4375 240.797 94.0625C240.797 94.5781 240.938 95.0469 241.219 95.4688C241.516 95.875 241.93 96.2578 242.461 96.6172C243.008 96.9766 243.664 97.3203 244.43 97.6484C245.211 97.9766 246.086 98.2969 247.055 98.6094C248.867 99.1875 250.477 99.8359 251.883 100.555C253.305 101.258 254.5 102.062 255.469 102.969C256.453 103.859 257.195 104.875 257.695 106.016C258.211 107.156 258.469 108.445 258.469 109.883C258.469 111.414 258.172 112.773 257.578 113.961C256.984 115.148 256.133 116.156 255.023 116.984C253.914 117.797 252.586 118.414 251.039 118.836C249.492 119.258 247.766 119.469 245.859 119.469C244.109 119.469 242.383 119.25 240.68 118.812C238.992 118.359 237.461 117.672 236.086 116.75C234.711 115.812 233.609 114.617 232.781 113.164C231.969 111.695 231.562 109.953 231.562 107.938H239.812C239.812 108.938 239.945 109.781 240.211 110.469C240.477 111.156 240.867 111.711 241.383 112.133C241.898 112.539 242.531 112.836 243.281 113.023C244.031 113.195 244.891 113.281 245.859 113.281C246.906 113.281 247.75 113.133 248.391 112.836C249.031 112.523 249.5 112.117 249.797 111.617C250.094 111.102 250.242 110.539 250.242 109.93ZM270.07 83V119H262.172V83H270.07ZM269.133 105.453L267.281 105.5C267.281 103.719 267.5 102.078 267.938 100.578C268.375 99.0781 269 97.7734 269.812 96.6641C270.625 95.5547 271.602 94.6953 272.742 94.0859C273.883 93.4766 275.148 93.1719 276.539 93.1719C277.789 93.1719 278.93 93.3516 279.961 93.7109C281.008 94.0703 281.906 94.6484 282.656 95.4453C283.422 96.2422 284.008 97.2812 284.414 98.5625C284.836 99.8438 285.047 101.406 285.047 103.25V119H277.102V103.203C277.102 102.172 276.953 101.375 276.656 100.812C276.375 100.234 275.969 99.8359 275.438 99.6172C274.906 99.3828 274.258 99.2656 273.492 99.2656C272.57 99.2656 271.82 99.4219 271.242 99.7344C270.664 100.047 270.219 100.484 269.906 101.047C269.609 101.594 269.406 102.242 269.297 102.992C269.188 103.742 269.133 104.562 269.133 105.453ZM288.445 106.578V106.086C288.445 104.227 288.711 102.516 289.242 100.953C289.773 99.375 290.555 98.0078 291.586 96.8516C292.617 95.6953 293.891 94.7969 295.406 94.1562C296.922 93.5 298.672 93.1719 300.656 93.1719C302.656 93.1719 304.414 93.5 305.93 94.1562C307.461 94.7969 308.742 95.6953 309.773 96.8516C310.805 98.0078 311.586 99.375 312.117 100.953C312.648 102.516 312.914 104.227 312.914 106.086V106.578C312.914 108.422 312.648 110.133 312.117 111.711C311.586 113.273 310.805 114.641 309.773 115.812C308.742 116.969 307.469 117.867 305.953 118.508C304.438 119.148 302.688 119.469 300.703 119.469C298.719 119.469 296.961 119.148 295.43 118.508C293.898 117.867 292.617 116.969 291.586 115.812C290.555 114.641 289.773 113.273 289.242 111.711C288.711 110.133 288.445 108.422 288.445 106.578ZM296.344 106.086V106.578C296.344 107.531 296.414 108.422 296.555 109.25C296.695 110.078 296.93 110.805 297.258 111.43C297.586 112.039 298.031 112.516 298.594 112.859C299.156 113.203 299.859 113.375 300.703 113.375C301.531 113.375 302.219 113.203 302.766 112.859C303.328 112.516 303.773 112.039 304.102 111.43C304.43 110.805 304.664 110.078 304.805 109.25C304.945 108.422 305.016 107.531 305.016 106.578V106.086C305.016 105.164 304.945 104.297 304.805 103.484C304.664 102.656 304.43 101.93 304.102 101.305C303.773 100.664 303.328 100.164 302.766 99.8047C302.203 99.4453 301.5 99.2656 300.656 99.2656C299.828 99.2656 299.133 99.4453 298.57 99.8047C298.023 100.164 297.586 100.664 297.258 101.305C296.93 101.93 296.695 102.656 296.555 103.484C296.414 104.297 296.344 105.164 296.344 106.086ZM324.141 111.453L328.828 93.6406H333.773L332.016 102.57L327.375 119H323.414L324.141 111.453ZM322.289 93.6406L325.195 111.312L325.523 119H320.719L314.719 93.6406H322.289ZM337.945 110.938L340.875 93.6406H348.445L342.492 119H337.688L337.945 110.938ZM334.336 93.6406L339.07 111.406L339.797 119H335.789L331.242 102.617L329.555 93.6406H334.336ZM362.016 113.375C362.75 113.375 363.375 113.242 363.891 112.977C364.422 112.695 364.82 112.305 365.086 111.805C365.367 111.289 365.5 110.672 365.484 109.953H372.914C372.93 111.859 372.461 113.531 371.508 114.969C370.57 116.391 369.289 117.5 367.664 118.297C366.055 119.078 364.234 119.469 362.203 119.469C360.219 119.469 358.484 119.148 357 118.508C355.516 117.852 354.273 116.945 353.273 115.789C352.289 114.617 351.547 113.25 351.047 111.688C350.562 110.125 350.32 108.43 350.32 106.602V106.062C350.32 104.234 350.562 102.539 351.047 100.977C351.547 99.3984 352.289 98.0312 353.273 96.875C354.273 95.7031 355.508 94.7969 356.977 94.1562C358.461 93.5 360.188 93.1719 362.156 93.1719C364.266 93.1719 366.125 93.5703 367.734 94.3672C369.359 95.1641 370.633 96.3203 371.555 97.8359C372.477 99.3516 372.93 101.188 372.914 103.344H365.484C365.5 102.578 365.383 101.891 365.133 101.281C364.883 100.672 364.492 100.188 363.961 99.8281C363.445 99.4531 362.781 99.2656 361.969 99.2656C361.156 99.2656 360.5 99.4453 360 99.8047C359.5 100.164 359.117 100.664 358.852 101.305C358.602 101.93 358.43 102.648 358.336 103.461C358.258 104.273 358.219 105.141 358.219 106.062V106.602C358.219 107.539 358.258 108.422 358.336 109.25C358.43 110.062 358.609 110.781 358.875 111.406C359.141 112.016 359.523 112.5 360.023 112.859C360.523 113.203 361.188 113.375 362.016 113.375ZM389.461 112.625V102.172C389.461 101.453 389.359 100.836 389.156 100.32C388.953 99.8047 388.633 99.4062 388.195 99.125C387.758 98.8281 387.172 98.6797 386.438 98.6797C385.844 98.6797 385.336 98.7812 384.914 98.9844C384.492 99.1875 384.172 99.4922 383.953 99.8984C383.734 100.305 383.625 100.82 383.625 101.445H375.727C375.727 100.273 375.984 99.1875 376.5 98.1875C377.031 97.1719 377.781 96.2891 378.75 95.5391C379.734 94.7891 380.906 94.2109 382.266 93.8047C383.641 93.3828 385.172 93.1719 386.859 93.1719C388.875 93.1719 390.672 93.5078 392.25 94.1797C393.844 94.8516 395.102 95.8594 396.023 97.2031C396.945 98.5312 397.406 100.203 397.406 102.219V112.602C397.406 114.258 397.5 115.516 397.688 116.375C397.875 117.219 398.141 117.961 398.484 118.602V119H390.562C390.188 118.219 389.906 117.266 389.719 116.141C389.547 115 389.461 113.828 389.461 112.625ZM390.422 103.508L390.469 107.727H386.977C386.242 107.727 385.617 107.828 385.102 108.031C384.602 108.234 384.195 108.516 383.883 108.875C383.586 109.219 383.367 109.609 383.227 110.047C383.102 110.484 383.039 110.945 383.039 111.43C383.039 111.898 383.148 112.32 383.367 112.695C383.602 113.055 383.914 113.336 384.305 113.539C384.695 113.742 385.133 113.844 385.617 113.844C386.492 113.844 387.234 113.68 387.844 113.352C388.469 113.008 388.945 112.594 389.273 112.109C389.602 111.625 389.766 111.172 389.766 110.75L391.5 113.984C391.188 114.609 390.828 115.242 390.422 115.883C390.031 116.523 389.539 117.117 388.945 117.664C388.367 118.195 387.656 118.633 386.812 118.977C385.969 119.305 384.945 119.469 383.742 119.469C382.18 119.469 380.742 119.148 379.43 118.508C378.133 117.867 377.094 116.977 376.312 115.836C375.531 114.68 375.141 113.352 375.141 111.852C375.141 110.539 375.375 109.367 375.844 108.336C376.328 107.305 377.055 106.43 378.023 105.711C378.992 104.992 380.227 104.445 381.727 104.07C383.227 103.695 384.992 103.508 387.023 103.508H390.422ZM415.078 111.875C415.078 111.438 414.93 111.062 414.633 110.75C414.352 110.422 413.852 110.125 413.133 109.859C412.414 109.578 411.406 109.297 410.109 109.016C408.875 108.75 407.711 108.398 406.617 107.961C405.539 107.523 404.594 106.992 403.781 106.367C402.969 105.742 402.328 105 401.859 104.141C401.406 103.281 401.18 102.297 401.18 101.188C401.18 100.109 401.406 99.0938 401.859 98.1406C402.328 97.1719 403.008 96.3203 403.898 95.5859C404.805 94.8359 405.906 94.25 407.203 93.8281C408.5 93.3906 409.977 93.1719 411.633 93.1719C413.914 93.1719 415.883 93.5234 417.539 94.2266C419.195 94.9141 420.469 95.8828 421.359 97.1328C422.266 98.3672 422.719 99.7969 422.719 101.422H414.82C414.82 100.781 414.711 100.234 414.492 99.7812C414.289 99.3281 413.953 98.9844 413.484 98.75C413.016 98.5 412.391 98.375 411.609 98.375C411.062 98.375 410.562 98.4766 410.109 98.6797C409.672 98.8828 409.32 99.1641 409.055 99.5234C408.789 99.8828 408.656 100.305 408.656 100.789C408.656 101.133 408.734 101.445 408.891 101.727C409.062 101.992 409.32 102.242 409.664 102.477C410.008 102.695 410.445 102.898 410.977 103.086C411.508 103.258 412.148 103.414 412.898 103.555C414.602 103.867 416.195 104.312 417.68 104.891C419.164 105.469 420.367 106.289 421.289 107.352C422.227 108.414 422.695 109.844 422.695 111.641C422.695 112.766 422.438 113.805 421.922 114.758C421.406 115.695 420.664 116.523 419.695 117.242C418.727 117.945 417.562 118.492 416.203 118.883C414.844 119.273 413.312 119.469 411.609 119.469C409.188 119.469 407.141 119.039 405.469 118.18C403.797 117.305 402.531 116.211 401.672 114.898C400.828 113.57 400.406 112.227 400.406 110.867H407.766C407.797 111.648 407.984 112.289 408.328 112.789C408.688 113.289 409.164 113.656 409.758 113.891C410.352 114.125 411.039 114.242 411.82 114.242C412.539 114.242 413.133 114.141 413.602 113.938C414.086 113.734 414.453 113.461 414.703 113.117C414.953 112.758 415.078 112.344 415.078 111.875ZM438.68 119.469C436.617 119.469 434.773 119.148 433.148 118.508C431.523 117.852 430.148 116.953 429.023 115.812C427.914 114.672 427.062 113.359 426.469 111.875C425.891 110.391 425.602 108.82 425.602 107.164V106.273C425.602 104.414 425.859 102.695 426.375 101.117C426.891 99.5234 427.656 98.1328 428.672 96.9453C429.688 95.7578 430.961 94.8359 432.492 94.1797C434.023 93.5078 435.805 93.1719 437.836 93.1719C439.633 93.1719 441.242 93.4609 442.664 94.0391C444.086 94.6172 445.289 95.4453 446.273 96.5234C447.273 97.6016 448.031 98.9062 448.547 100.438C449.078 101.969 449.344 103.688 449.344 105.594V108.805H428.625V103.859H441.633V103.25C441.648 102.406 441.5 101.688 441.188 101.094C440.891 100.5 440.453 100.047 439.875 99.7344C439.297 99.4219 438.594 99.2656 437.766 99.2656C436.906 99.2656 436.195 99.4531 435.633 99.8281C435.086 100.203 434.656 100.719 434.344 101.375C434.047 102.016 433.836 102.758 433.711 103.602C433.586 104.445 433.523 105.336 433.523 106.273V107.164C433.523 108.102 433.648 108.953 433.898 109.719C434.164 110.484 434.539 111.141 435.023 111.688C435.523 112.219 436.117 112.633 436.805 112.93C437.508 113.227 438.305 113.375 439.195 113.375C440.273 113.375 441.336 113.172 442.383 112.766C443.43 112.359 444.328 111.688 445.078 110.75L448.664 115.016C448.148 115.75 447.414 116.461 446.461 117.148C445.523 117.836 444.398 118.398 443.086 118.836C441.773 119.258 440.305 119.469 438.68 119.469Z" fill="black"/>
<path d="M1134 0H1348C1356.28 0 1363 6.71573 1363 15V148C1363 156.284 1356.28 163 1348 163H1134V0Z" fill="#1261A9"/>
<path d="M1260.62 78.8078C1263.81 78.8078 1266.93 79.7552 1269.59 81.5302C1272.25 83.3052 1274.32 85.8281 1275.54 88.7798C1276.76 91.7315 1277.08 94.9795 1276.46 98.1131C1275.84 101.247 1274.3 104.125 1272.04 106.384C1269.78 108.643 1266.9 110.182 1263.77 110.805C1260.63 111.428 1257.39 111.108 1254.43 109.886C1251.48 108.663 1248.96 106.593 1247.18 103.936C1245.41 101.28 1244.46 98.1565 1244.46 94.9616C1244.46 90.6774 1246.16 86.5686 1249.19 83.5392C1252.22 80.5097 1256.33 78.8078 1260.62 78.8078V78.8078ZM1260.62 73.4232C1256.36 73.4232 1252.19 74.6864 1248.65 77.0531C1245.11 79.4198 1242.35 82.7836 1240.72 86.7192C1239.09 90.6549 1238.66 94.9855 1239.49 99.1636C1240.32 103.342 1242.37 107.179 1245.39 110.192C1248.4 113.204 1252.24 115.255 1256.41 116.086C1260.59 116.917 1264.92 116.491 1268.86 114.861C1272.79 113.23 1276.16 110.47 1278.52 106.928C1280.89 103.386 1282.15 99.2215 1282.15 94.9616C1282.15 89.2493 1279.88 83.7709 1275.85 79.7317C1271.81 75.6924 1266.33 73.4232 1260.62 73.4232Z" fill="white"/>
<path d="M1274.08 46.4999H1220.23C1218.8 46.4999 1217.43 47.0672 1216.42 48.0771C1215.41 49.0869 1214.85 50.4565 1214.85 51.8845V105.731C1214.85 107.159 1215.41 108.528 1216.42 109.538C1217.43 110.548 1218.8 111.115 1220.23 111.115H1231V105.731H1220.23V68.0383H1279.46V51.8845C1279.46 50.4565 1278.89 49.0869 1277.88 48.0771C1276.87 47.0672 1275.5 46.4999 1274.08 46.4999V46.4999ZM1220.23 62.6537V51.8845H1274.08V62.6537H1220.23Z" fill="white"/>
<path d="M1255.23 86.8848V103.039L1268.69 94.9617L1255.23 86.8848Z" fill="white"/>
</svg>
