<svg width="1363" height="163" viewBox="0 0 1363 163" fill="none" xmlns="http://www.w3.org/2000/svg">
<path d="M0 15C0 6.71573 6.71573 0 15 0H37V163H15C6.71573 163 0 156.284 0 148V15Z" fill="#FFD700"/>
<rect width="1097" height="163" transform="translate(37)" fill="#F0F0F0"/>
<path d="M101.906 53.9219L94.3945 51.2383V48.0859L104.602 52.375V54.6367L101.906 53.9219ZM94.3945 56.1719L101.918 53.4297L104.602 52.7852V55.0352L94.3945 59.3242V56.1719ZM116.637 43.9375V61H113.133V43.9375H116.637ZM123.023 51.0273V61H119.648V48.3203H122.812L123.023 51.0273ZM122.531 54.2148H121.617C121.617 53.2773 121.738 52.4336 121.98 51.6836C122.223 50.9258 122.562 50.2812 123 49.75C123.438 49.2109 123.957 48.8008 124.559 48.5195C125.168 48.2305 125.848 48.0859 126.598 48.0859C127.191 48.0859 127.734 48.1719 128.227 48.3438C128.719 48.5156 129.141 48.7891 129.492 49.1641C129.852 49.5391 130.125 50.0352 130.312 50.6523C130.508 51.2695 130.605 52.0234 130.605 52.9141V61H127.207V52.9023C127.207 52.3398 127.129 51.9023 126.973 51.5898C126.816 51.2773 126.586 51.0586 126.281 50.9336C125.984 50.8008 125.617 50.7344 125.18 50.7344C124.727 50.7344 124.332 50.8242 123.996 51.0039C123.668 51.1836 123.395 51.4336 123.176 51.7539C122.965 52.0664 122.805 52.4336 122.695 52.8555C122.586 53.2773 122.531 53.7305 122.531 54.2148ZM136.477 51.0273V61H133.102V48.3203H136.266L136.477 51.0273ZM135.984 54.2148H135.07C135.07 53.2773 135.191 52.4336 135.434 51.6836C135.676 50.9258 136.016 50.2812 136.453 49.75C136.891 49.2109 137.41 48.8008 138.012 48.5195C138.621 48.2305 139.301 48.0859 140.051 48.0859C140.645 48.0859 141.188 48.1719 141.68 48.3438C142.172 48.5156 142.594 48.7891 142.945 49.1641C143.305 49.5391 143.578 50.0352 143.766 50.6523C143.961 51.2695 144.059 52.0234 144.059 52.9141V61H140.66V52.9023C140.66 52.3398 140.582 51.9023 140.426 51.5898C140.27 51.2773 140.039 51.0586 139.734 50.9336C139.438 50.8008 139.07 50.7344 138.633 50.7344C138.18 50.7344 137.785 50.8242 137.449 51.0039C137.121 51.1836 136.848 51.4336 136.629 51.7539C136.418 52.0664 136.258 52.4336 136.148 52.8555C136.039 53.2773 135.984 53.7305 135.984 54.2148ZM146.086 54.7891V54.543C146.086 53.6133 146.219 52.7578 146.484 51.9766C146.75 51.1875 147.137 50.5039 147.645 49.9258C148.152 49.3477 148.777 48.8984 149.52 48.5781C150.262 48.25 151.113 48.0859 152.074 48.0859C153.035 48.0859 153.891 48.25 154.641 48.5781C155.391 48.8984 156.02 49.3477 156.527 49.9258C157.043 50.5039 157.434 51.1875 157.699 51.9766C157.965 52.7578 158.098 53.6133 158.098 54.543V54.7891C158.098 55.7109 157.965 56.5664 157.699 57.3555C157.434 58.1367 157.043 58.8203 156.527 59.4062C156.02 59.9844 155.395 60.4336 154.652 60.7539C153.91 61.0742 153.059 61.2344 152.098 61.2344C151.137 61.2344 150.281 61.0742 149.531 60.7539C148.789 60.4336 148.16 59.9844 147.645 59.4062C147.137 58.8203 146.75 58.1367 146.484 57.3555C146.219 56.5664 146.086 55.7109 146.086 54.7891ZM149.461 54.543V54.7891C149.461 55.3203 149.508 55.8164 149.602 56.2773C149.695 56.7383 149.844 57.1445 150.047 57.4961C150.258 57.8398 150.531 58.1094 150.867 58.3047C151.203 58.5 151.613 58.5977 152.098 58.5977C152.566 58.5977 152.969 58.5 153.305 58.3047C153.641 58.1094 153.91 57.8398 154.113 57.4961C154.316 57.1445 154.465 56.7383 154.559 56.2773C154.66 55.8164 154.711 55.3203 154.711 54.7891V54.543C154.711 54.0273 154.66 53.543 154.559 53.0898C154.465 52.6289 154.312 52.2227 154.102 51.8711C153.898 51.5117 153.629 51.2305 153.293 51.0273C152.957 50.8242 152.551 50.7227 152.074 50.7227C151.598 50.7227 151.191 50.8242 150.855 51.0273C150.527 51.2305 150.258 51.5117 150.047 51.8711C149.844 52.2227 149.695 52.6289 149.602 53.0898C149.508 53.543 149.461 54.0273 149.461 54.543ZM164.297 58.5391L167.109 48.3203H170.637L166.359 61H164.227L164.297 58.5391ZM162.363 48.3203L165.188 58.5508L165.246 61H163.102L158.824 48.3203H162.363ZM178.805 58.1406V52.4922C178.805 52.0859 178.738 51.7383 178.605 51.4492C178.473 51.1523 178.266 50.9219 177.984 50.7578C177.711 50.5938 177.355 50.5117 176.918 50.5117C176.543 50.5117 176.219 50.5781 175.945 50.7109C175.672 50.8359 175.461 51.0195 175.312 51.2617C175.164 51.4961 175.09 51.7734 175.09 52.0938H171.715C171.715 51.5547 171.84 51.043 172.09 50.5586C172.34 50.0742 172.703 49.6484 173.18 49.2812C173.656 48.9062 174.223 48.6133 174.879 48.4023C175.543 48.1914 176.285 48.0859 177.105 48.0859C178.09 48.0859 178.965 48.25 179.73 48.5781C180.496 48.9062 181.098 49.3984 181.535 50.0547C181.98 50.7109 182.203 51.5312 182.203 52.5156V57.9414C182.203 58.6367 182.246 59.207 182.332 59.6523C182.418 60.0898 182.543 60.4727 182.707 60.8008V61H179.297C179.133 60.6562 179.008 60.2266 178.922 59.7109C178.844 59.1875 178.805 58.6641 178.805 58.1406ZM179.25 53.2773L179.273 55.1875H177.387C176.941 55.1875 176.555 55.2383 176.227 55.3398C175.898 55.4414 175.629 55.5859 175.418 55.7734C175.207 55.9531 175.051 56.1641 174.949 56.4062C174.855 56.6484 174.809 56.9141 174.809 57.2031C174.809 57.4922 174.875 57.7539 175.008 57.9883C175.141 58.2148 175.332 58.3945 175.582 58.5273C175.832 58.6523 176.125 58.7148 176.461 58.7148C176.969 58.7148 177.41 58.6133 177.785 58.4102C178.16 58.207 178.449 57.957 178.652 57.6602C178.863 57.3633 178.973 57.082 178.98 56.8164L179.871 58.2461C179.746 58.5664 179.574 58.8984 179.355 59.2422C179.145 59.5859 178.875 59.9102 178.547 60.2148C178.219 60.5117 177.824 60.7578 177.363 60.9531C176.902 61.1406 176.355 61.2344 175.723 61.2344C174.918 61.2344 174.188 61.0742 173.531 60.7539C172.883 60.4258 172.367 59.9766 171.984 59.4062C171.609 58.8281 171.422 58.1719 171.422 57.4375C171.422 56.7734 171.547 56.1836 171.797 55.668C172.047 55.1523 172.414 54.7188 172.898 54.3672C173.391 54.0078 174.004 53.7383 174.738 53.5586C175.473 53.3711 176.324 53.2773 177.293 53.2773H179.25ZM191.016 48.3203V50.7109H183.633V48.3203H191.016ZM185.461 45.1914H188.836V57.1797C188.836 57.5469 188.883 57.8281 188.977 58.0234C189.078 58.2188 189.227 58.3555 189.422 58.4336C189.617 58.5039 189.863 58.5391 190.16 58.5391C190.371 58.5391 190.559 58.5312 190.723 58.5156C190.895 58.4922 191.039 58.4688 191.156 58.4453L191.168 60.9297C190.879 61.0234 190.566 61.0977 190.23 61.1523C189.895 61.207 189.523 61.2344 189.117 61.2344C188.375 61.2344 187.727 61.1133 187.172 60.8711C186.625 60.6211 186.203 60.2227 185.906 59.6758C185.609 59.1289 185.461 58.4102 185.461 57.5195V45.1914ZM196.5 48.3203V61H193.113V48.3203H196.5ZM192.902 45.0156C192.902 44.5234 193.074 44.1172 193.418 43.7969C193.762 43.4766 194.223 43.3164 194.801 43.3164C195.371 43.3164 195.828 43.4766 196.172 43.7969C196.523 44.1172 196.699 44.5234 196.699 45.0156C196.699 45.5078 196.523 45.9141 196.172 46.2344C195.828 46.5547 195.371 46.7148 194.801 46.7148C194.223 46.7148 193.762 46.5547 193.418 46.2344C193.074 45.9141 192.902 45.5078 192.902 45.0156ZM203.602 58.5391L206.414 48.3203H209.941L205.664 61H203.531L203.602 58.5391ZM201.668 48.3203L204.492 58.5508L204.551 61H202.406L198.129 48.3203H201.668ZM217.125 61.2344C216.141 61.2344 215.258 61.0781 214.477 60.7656C213.695 60.4453 213.031 60.0039 212.484 59.4414C211.945 58.8789 211.531 58.2266 211.242 57.4844C210.953 56.7344 210.809 55.9375 210.809 55.0938V54.625C210.809 53.6641 210.945 52.7852 211.219 51.9883C211.492 51.1914 211.883 50.5 212.391 49.9141C212.906 49.3281 213.531 48.8789 214.266 48.5664C215 48.2461 215.828 48.0859 216.75 48.0859C217.648 48.0859 218.445 48.2344 219.141 48.5312C219.836 48.8281 220.418 49.25 220.887 49.7969C221.363 50.3438 221.723 51 221.965 51.7656C222.207 52.5234 222.328 53.3672 222.328 54.2969V55.7031H212.25V53.4531H219.012V53.1953C219.012 52.7266 218.926 52.3086 218.754 51.9414C218.59 51.5664 218.34 51.2695 218.004 51.0508C217.668 50.832 217.238 50.7227 216.715 50.7227C216.27 50.7227 215.887 50.8203 215.566 51.0156C215.246 51.2109 214.984 51.4844 214.781 51.8359C214.586 52.1875 214.438 52.6016 214.336 53.0781C214.242 53.5469 214.195 54.0625 214.195 54.625V55.0938C214.195 55.6016 214.266 56.0703 214.406 56.5C214.555 56.9297 214.762 57.3008 215.027 57.6133C215.301 57.9258 215.629 58.168 216.012 58.3398C216.402 58.5117 216.844 58.5977 217.336 58.5977C217.945 58.5977 218.512 58.4805 219.035 58.2461C219.566 58.0039 220.023 57.6406 220.406 57.1562L222.047 58.9375C221.781 59.3203 221.418 59.6875 220.957 60.0391C220.504 60.3906 219.957 60.6797 219.316 60.9062C218.676 61.125 217.945 61.2344 217.125 61.2344ZM226.066 43.9375H229.043L233.426 56.4648L237.809 43.9375H240.785L234.621 61H232.23L226.066 43.9375ZM224.461 43.9375H227.426L227.965 56.1484V61H224.461V43.9375ZM239.426 43.9375H242.402V61H238.887V56.1484L239.426 43.9375ZM256.453 58.2578V61H247.863V58.2578H256.453ZM249 43.9375V61H245.484V43.9375H249Z" fill="#888888"/>
<path d="M118.594 98.4219V104.75H101.086V98.4219H118.594ZM103.828 84.875V119H95.6016V84.875H103.828ZM124.125 84.875V119H115.922V84.875H124.125ZM127.992 106.578V106.086C127.992 104.227 128.258 102.516 128.789 100.953C129.32 99.375 130.102 98.0078 131.133 96.8516C132.164 95.6953 133.438 94.7969 134.953 94.1562C136.469 93.5 138.219 93.1719 140.203 93.1719C142.203 93.1719 143.961 93.5 145.477 94.1562C147.008 94.7969 148.289 95.6953 149.32 96.8516C150.352 98.0078 151.133 99.375 151.664 100.953C152.195 102.516 152.461 104.227 152.461 106.086V106.578C152.461 108.422 152.195 110.133 151.664 111.711C151.133 113.273 150.352 114.641 149.32 115.812C148.289 116.969 147.016 117.867 145.5 118.508C143.984 119.148 142.234 119.469 140.25 119.469C138.266 119.469 136.508 119.148 134.977 118.508C133.445 117.867 132.164 116.969 131.133 115.812C130.102 114.641 129.32 113.273 128.789 111.711C128.258 110.133 127.992 108.422 127.992 106.578ZM135.891 106.086V106.578C135.891 107.531 135.961 108.422 136.102 109.25C136.242 110.078 136.477 110.805 136.805 111.43C137.133 112.039 137.578 112.516 138.141 112.859C138.703 113.203 139.406 113.375 140.25 113.375C141.078 113.375 141.766 113.203 142.312 112.859C142.875 112.516 143.32 112.039 143.648 111.43C143.977 110.805 144.211 110.078 144.352 109.25C144.492 108.422 144.562 107.531 144.562 106.578V106.086C144.562 105.164 144.492 104.297 144.352 103.484C144.211 102.656 143.977 101.93 143.648 101.305C143.32 100.664 142.875 100.164 142.312 99.8047C141.75 99.4453 141.047 99.2656 140.203 99.2656C139.375 99.2656 138.68 99.4453 138.117 99.8047C137.57 100.164 137.133 100.664 136.805 101.305C136.477 101.93 136.242 102.656 136.102 103.484C135.961 104.297 135.891 105.164 135.891 106.086ZM163.688 111.453L168.375 93.6406H173.32L171.562 102.57L166.922 119H162.961L163.688 111.453ZM161.836 93.6406L164.742 111.312L165.07 119H160.266L154.266 93.6406H161.836ZM177.492 110.938L180.422 93.6406H187.992L182.039 119H177.234L177.492 110.938ZM173.883 93.6406L178.617 111.406L179.344 119H175.336L170.789 102.617L169.102 93.6406H173.883ZM218.297 84.875V119H210.07V84.875H218.297ZM228.562 84.875V91.2266H200.039V84.875H228.562ZM225.773 106.578V106.086C225.773 104.227 226.039 102.516 226.57 100.953C227.102 99.375 227.883 98.0078 228.914 96.8516C229.945 95.6953 231.219 94.7969 232.734 94.1562C234.25 93.5 236 93.1719 237.984 93.1719C239.984 93.1719 241.742 93.5 243.258 94.1562C244.789 94.7969 246.07 95.6953 247.102 96.8516C248.133 98.0078 248.914 99.375 249.445 100.953C249.977 102.516 250.242 104.227 250.242 106.086V106.578C250.242 108.422 249.977 110.133 249.445 111.711C248.914 113.273 248.133 114.641 247.102 115.812C246.07 116.969 244.797 117.867 243.281 118.508C241.766 119.148 240.016 119.469 238.031 119.469C236.047 119.469 234.289 119.148 232.758 118.508C231.227 117.867 229.945 116.969 228.914 115.812C227.883 114.641 227.102 113.273 226.57 111.711C226.039 110.133 225.773 108.422 225.773 106.578ZM233.672 106.086V106.578C233.672 107.531 233.742 108.422 233.883 109.25C234.023 110.078 234.258 110.805 234.586 111.43C234.914 112.039 235.359 112.516 235.922 112.859C236.484 113.203 237.188 113.375 238.031 113.375C238.859 113.375 239.547 113.203 240.094 112.859C240.656 112.516 241.102 112.039 241.43 111.43C241.758 110.805 241.992 110.078 242.133 109.25C242.273 108.422 242.344 107.531 242.344 106.578V106.086C242.344 105.164 242.273 104.297 242.133 103.484C241.992 102.656 241.758 101.93 241.43 101.305C241.102 100.664 240.656 100.164 240.094 99.8047C239.531 99.4453 238.828 99.2656 237.984 99.2656C237.156 99.2656 236.461 99.4453 235.898 99.8047C235.352 100.164 234.914 100.664 234.586 101.305C234.258 101.93 234.023 102.656 233.883 103.484C233.742 104.297 233.672 105.164 233.672 106.086ZM266.086 84.875H279.516C282.141 84.875 284.422 85.2656 286.359 86.0469C288.297 86.8281 289.789 87.9844 290.836 89.5156C291.898 91.0469 292.43 92.9375 292.43 95.1875C292.43 97.1406 292.125 98.7734 291.516 100.086C290.906 101.398 290.055 102.484 288.961 103.344C287.883 104.188 286.625 104.883 285.188 105.43L282.492 106.953H271.219L271.172 100.602H279.516C280.562 100.602 281.43 100.414 282.117 100.039C282.805 99.6641 283.32 99.1328 283.664 98.4453C284.023 97.7422 284.203 96.9062 284.203 95.9375C284.203 94.9531 284.023 94.1094 283.664 93.4062C283.305 92.7031 282.773 92.1641 282.07 91.7891C281.383 91.4141 280.531 91.2266 279.516 91.2266H274.312V119H266.086V84.875ZM284.766 119L277.219 103.906L285.938 103.859L293.578 118.648V119H284.766ZM311.836 112.836V93.6406H319.758V119H312.352L311.836 112.836ZM312.586 107.68L314.648 107.633C314.648 109.336 314.445 110.914 314.039 112.367C313.633 113.805 313.031 115.055 312.234 116.117C311.453 117.18 310.484 118.008 309.328 118.602C308.188 119.18 306.867 119.469 305.367 119.469C304.117 119.469 302.969 119.297 301.922 118.953C300.891 118.594 300 118.039 299.25 117.289C298.5 116.523 297.914 115.547 297.492 114.359C297.086 113.156 296.883 111.719 296.883 110.047V93.6406H304.781V110.094C304.781 110.656 304.852 111.141 304.992 111.547C305.133 111.953 305.336 112.297 305.602 112.578C305.867 112.844 306.195 113.047 306.586 113.188C306.992 113.312 307.453 113.375 307.969 113.375C309.156 113.375 310.086 113.125 310.758 112.625C311.43 112.125 311.898 111.445 312.164 110.586C312.445 109.727 312.586 108.758 312.586 107.68ZM331.875 99.0547V119H323.977V93.6406H331.383L331.875 99.0547ZM330.938 105.453L329.086 105.5C329.086 103.562 329.32 101.836 329.789 100.32C330.258 98.7891 330.922 97.4922 331.781 96.4297C332.641 95.3672 333.664 94.5625 334.852 94.0156C336.055 93.4531 337.391 93.1719 338.859 93.1719C340.031 93.1719 341.102 93.3438 342.07 93.6875C343.055 94.0312 343.898 94.5859 344.602 95.3516C345.32 96.1172 345.867 97.1328 346.242 98.3984C346.633 99.6484 346.828 101.195 346.828 103.039V119H338.883V103.016C338.883 102 338.742 101.227 338.461 100.695C338.18 100.148 337.773 99.7734 337.242 99.5703C336.711 99.3672 336.062 99.2656 335.297 99.2656C334.484 99.2656 333.797 99.4219 333.234 99.7344C332.672 100.047 332.219 100.484 331.875 101.047C331.547 101.594 331.305 102.242 331.148 102.992C331.008 103.742 330.938 104.562 330.938 105.453ZM363.773 108.195H357.047C357.047 106.82 357.141 105.609 357.328 104.562C357.531 103.5 357.875 102.547 358.359 101.703C358.844 100.859 359.5 100.078 360.328 99.3594C361.062 98.75 361.695 98.1641 362.227 97.6016C362.758 97.0391 363.164 96.4688 363.445 95.8906C363.727 95.3125 363.867 94.6953 363.867 94.0391C363.867 93.2266 363.75 92.5625 363.516 92.0469C363.297 91.5312 362.961 91.1484 362.508 90.8984C362.07 90.6328 361.516 90.5 360.844 90.5C360.297 90.5 359.781 90.6328 359.297 90.8984C358.828 91.1641 358.445 91.5781 358.148 92.1406C357.852 92.6875 357.688 93.4141 357.656 94.3203H349.711C349.758 91.9922 350.273 90.1016 351.258 88.6484C352.258 87.1797 353.586 86.1094 355.242 85.4375C356.914 84.75 358.781 84.4062 360.844 84.4062C363.125 84.4062 365.086 84.7578 366.727 85.4609C368.367 86.1641 369.625 87.2109 370.5 88.6016C371.375 89.9766 371.812 91.6719 371.812 93.6875C371.812 95.0312 371.555 96.2031 371.039 97.2031C370.539 98.1875 369.859 99.1094 369 99.9688C368.156 100.812 367.211 101.719 366.164 102.688C365.258 103.484 364.641 104.297 364.312 105.125C363.984 105.938 363.805 106.961 363.773 108.195ZM356.086 115.32C356.086 114.195 356.492 113.258 357.305 112.508C358.117 111.742 359.172 111.359 360.469 111.359C361.766 111.359 362.82 111.742 363.633 112.508C364.445 113.258 364.852 114.195 364.852 115.32C364.852 116.445 364.445 117.391 363.633 118.156C362.82 118.906 361.766 119.281 360.469 119.281C359.172 119.281 358.117 118.906 357.305 118.156C356.492 117.391 356.086 116.445 356.086 115.32Z" fill="black"/>
<path d="M1134 0H1348C1356.28 0 1363 6.71573 1363 15V148C1363 156.284 1356.28 163 1348 163H1134V0Z" fill="#1261A9"/>
<path d="M1260.62 78.8078C1263.81 78.8078 1266.93 79.7552 1269.59 81.5302C1272.25 83.3052 1274.32 85.8281 1275.54 88.7798C1276.76 91.7315 1277.08 94.9795 1276.46 98.1131C1275.84 101.247 1274.3 104.125 1272.04 106.384C1269.78 108.643 1266.9 110.182 1263.77 110.805C1260.63 111.428 1257.39 111.108 1254.43 109.886C1251.48 108.663 1248.96 106.593 1247.18 103.936C1245.41 101.28 1244.46 98.1565 1244.46 94.9616C1244.46 90.6774 1246.16 86.5686 1249.19 83.5392C1252.22 80.5097 1256.33 78.8078 1260.62 78.8078ZM1260.62 73.4232C1256.36 73.4232 1252.19 74.6864 1248.65 77.0531C1245.11 79.4198 1242.35 82.7836 1240.72 86.7192C1239.09 90.6549 1238.66 94.9855 1239.49 99.1636C1240.32 103.342 1242.37 107.179 1245.39 110.192C1248.4 113.204 1252.24 115.255 1256.41 116.086C1260.59 116.917 1264.92 116.491 1268.86 114.861C1272.79 113.23 1276.16 110.47 1278.52 106.928C1280.89 103.386 1282.15 99.2215 1282.15 94.9616C1282.15 89.2493 1279.88 83.7709 1275.85 79.7317C1271.81 75.6924 1266.33 73.4232 1260.62 73.4232Z" fill="white"/>
<path d="M1274.08 46.4999H1220.23C1218.8 46.4999 1217.43 47.0672 1216.42 48.0771C1215.41 49.0869 1214.85 50.4565 1214.85 51.8845V105.731C1214.85 107.159 1215.41 108.528 1216.42 109.538C1217.43 110.548 1218.8 111.115 1220.23 111.115H1231V105.731H1220.23V68.0383H1279.46V51.8845C1279.46 50.4565 1278.89 49.0869 1277.88 48.0771C1276.87 47.0672 1275.5 46.4999 1274.08 46.4999ZM1220.23 62.6537V51.8845H1274.08V62.6537H1220.23Z" fill="white"/>
<path d="M1255.23 86.8848V103.039L1268.69 94.9617L1255.23 86.8848Z" fill="white"/>
</svg>
